<svg width="32" height="29" viewBox="0 0 32 29" fill="none" xmlns="http://www.w3.org/2000/svg">
<ellipse cx="2.13333" cy="2.12758" rx="2.13333" ry="2.12758" fill="white" fill-opacity="0.2"/>
<ellipse cx="11.3778" cy="2.12758" rx="2.13333" ry="2.12758" fill="white" fill-opacity="0.2"/>
<ellipse cx="20.6222" cy="2.12758" rx="2.13333" ry="2.12758" fill="white" fill-opacity="0.2"/>
<ellipse cx="29.8667" cy="2.12758" rx="2.13333" ry="2.12758" fill="white" fill-opacity="0.2"/>
<ellipse cx="2.13333" cy="10.106" rx="2.13333" ry="2.12758" fill="white" fill-opacity="0.2"/>
<ellipse cx="11.3778" cy="10.106" rx="2.13333" ry="2.12758" fill="white" fill-opacity="0.2"/>
<ellipse cx="20.6222" cy="10.106" rx="2.13333" ry="2.12758" fill="white" fill-opacity="0.2"/>
<ellipse cx="29.8667" cy="10.106" rx="2.13333" ry="2.12758" fill="white" fill-opacity="0.2"/>
<ellipse cx="2.13333" cy="18.0845" rx="2.13333" ry="2.12758" fill="white" fill-opacity="0.2"/>
<ellipse cx="11.3778" cy="18.0845" rx="2.13333" ry="2.12758" fill="white" fill-opacity="0.2"/>
<ellipse cx="20.6222" cy="18.0845" rx="2.13333" ry="2.12758" fill="white" fill-opacity="0.2"/>
<ellipse cx="29.8667" cy="18.0845" rx="2.13333" ry="2.12758" fill="white" fill-opacity="0.2"/>
<ellipse cx="2.13333" cy="26.0629" rx="2.13333" ry="2.12758" fill="white" fill-opacity="0.2"/>
<ellipse cx="11.3778" cy="26.0629" rx="2.13333" ry="2.12758" fill="white" fill-opacity="0.2"/>
<ellipse cx="20.6222" cy="26.0629" rx="2.13333" ry="2.12758" fill="white" fill-opacity="0.2"/>
<ellipse cx="29.8667" cy="26.0629" rx="2.13333" ry="2.12758" fill="white" fill-opacity="0.2"/>
</svg>
