<svg width="140" height="141" viewBox="0 0 140 141" fill="none" xmlns="http://www.w3.org/2000/svg">
<path fill-rule="evenodd" clip-rule="evenodd" d="M69.9771 140.435C106.587 140.435 136.653 112.417 139.903 76.654H104.497C101.474 92.97 87.1685 105.326 69.9771 105.326C52.5807 105.326 38.1395 92.6736 35.3538 76.0689H0C2.97342 112.111 33.1676 140.435 69.9771 140.435ZM6.51023e-07 64.366C2.97342 28.3238 33.1676 0 69.9771 0C106.986 0 137.307 28.6308 140 64.9511H104.693C102.153 48.0594 87.5772 35.1087 69.9771 35.1087C52.5807 35.1087 38.1395 47.7612 35.3538 64.366H6.51023e-07Z" fill="#D9D9D9" fill-opacity="0.4"/>
<circle cx="69.9771" cy="70.2174" r="23.4058" fill="#D9D9D9" fill-opacity="0.4"/>
</svg>
