<svg xmlns="http://www.w3.org/2000/svg" width="192" height="48" viewBox="0 0 192 48" fill="none"><g clip-path="url(#clip0_437_98)"><path d="M113.903 35.5696C115.753 37.3607 118.003 38.2578 120.656 38.2578C122.682 38.2578 124.469 37.7325 126.021 36.685V47.2872H130.126V20.1961H126.021V21.2318C124.502 20.2049 122.738 19.6915 120.73 19.6915C118.042 19.6915 115.774 20.5767 113.924 22.3442C112.086 24.1236 111.17 26.3307 111.17 28.9658C111.17 31.6008 112.083 33.7785 113.906 35.5696H113.903ZM116.803 24.8494C117.764 23.8255 119.047 23.315 120.653 23.315C122.258 23.315 123.529 23.8314 124.502 24.8671C125.451 25.8881 125.925 27.2779 125.925 29.0366C125.925 30.6713 125.439 32.008 124.466 33.0438C123.493 34.0795 122.222 34.5959 120.653 34.5959C119.083 34.5959 117.776 34.0795 116.803 33.0438C115.843 32.0198 115.362 30.6566 115.362 28.9481C115.362 27.2396 115.843 25.8734 116.803 24.8524V24.8494Z" fill="#00C899"></path><path d="M153.721 28.895C153.721 26.3573 154.64 24.1973 156.475 22.418C158.313 20.6387 160.551 19.7476 163.188 19.7476C165.826 19.7476 168.091 20.6446 169.941 22.4357C171.767 24.2268 172.677 26.4311 172.677 29.0396C172.677 31.6481 171.758 33.8818 169.923 35.6611C168.073 37.4286 165.805 38.3139 163.117 38.3139C160.428 38.3139 158.22 37.4109 156.421 35.608C154.622 33.8287 153.721 31.589 153.721 28.895ZM157.916 28.9687C157.916 30.7245 158.39 32.1143 159.339 33.1382C160.312 34.1739 161.595 34.6903 163.188 34.6903C164.782 34.6903 166.077 34.1798 167.038 33.1559C167.998 32.1349 168.479 30.7687 168.479 29.0602C168.479 27.3517 167.998 25.9855 167.038 24.9645C166.065 23.9288 164.782 23.4124 163.188 23.4124C161.595 23.4124 160.348 23.9288 159.375 24.9645C158.402 26.0003 157.916 27.334 157.916 28.9717V28.9687Z" fill="#00C899"></path><path d="M179.028 28.2989L172.643 20.2315H177.533L181.493 25.357L185.524 20.2315H190.561L183.993 28.2989L191.602 37.8093H186.712L181.493 31.2408L176.146 37.8093H171.127L179.028 28.2989Z" fill="#00C899"></path><path d="M61.7124 10.8362V33.9851H69.733V37.8122H57.5977V10.8362H61.7124Z" fill="#00C899"></path><path d="M149.655 22.4357C147.805 20.6446 145.555 19.7476 142.902 19.7476C140.876 19.7476 139.089 20.2728 137.537 21.3203V10.7182H133.432V37.8093H137.537V36.7735C139.056 37.8004 140.82 38.3139 142.828 38.3139C145.516 38.3139 147.784 37.4286 149.634 35.6611C151.472 33.8818 152.388 31.6746 152.388 29.0396C152.388 26.4045 151.475 24.2268 149.652 22.4357H149.655ZM146.755 33.1529C145.794 34.1769 144.511 34.6873 142.905 34.6873C141.3 34.6873 140.029 34.171 139.056 33.1352C138.107 32.1143 137.633 30.7245 137.633 28.9658C137.633 27.3311 138.119 25.9944 139.092 24.9586C140.065 23.9229 141.336 23.4065 142.905 23.4065C144.475 23.4065 145.782 23.9229 146.755 24.9586C147.715 25.9825 148.196 27.3458 148.196 29.0543C148.196 30.7628 147.715 32.129 146.755 33.15V33.1529Z" fill="#00C899"></path><path d="M70.5977 28.895C70.5977 26.3573 71.5167 24.1973 73.3518 22.418C75.1898 20.6387 77.4277 19.7476 80.0655 19.7476C82.7032 19.7476 84.9679 20.6446 86.8179 22.4357C88.6441 24.2268 89.5541 26.4311 89.5541 29.0396C89.5541 31.6481 88.6351 33.8818 86.8 35.6611C84.95 37.4286 82.6823 38.3139 79.9938 38.3139C77.3054 38.3139 75.0973 37.4109 73.2981 35.608C71.4988 33.8287 70.5977 31.589 70.5977 28.895ZM74.793 28.9687C74.793 30.7245 75.2674 32.1143 76.2163 33.1382C77.189 34.1739 78.4721 34.6903 80.0655 34.6903C81.6588 34.6903 82.9538 34.1798 83.9146 33.1559C84.8754 32.1349 85.3558 30.7687 85.3558 29.0602C85.3558 27.3517 84.8754 25.9855 83.9146 24.9645C82.9419 23.9288 81.6588 23.4124 80.0655 23.4124C78.4721 23.4124 77.2248 23.9288 76.2521 24.9645C75.2793 26.0003 74.793 27.334 74.793 28.9717V28.9687Z" fill="#00C899"></path><path d="M90.8789 28.895C90.8789 26.3573 91.7979 24.1973 93.633 22.418C95.4711 20.6387 97.709 19.7476 100.347 19.7476C102.984 19.7476 105.249 20.6446 107.099 22.4357C108.925 24.2268 109.835 26.4311 109.835 29.0396C109.835 31.6481 108.916 33.8818 107.081 35.6611C105.231 37.4286 102.964 38.3139 100.275 38.3139C97.5866 38.3139 95.3786 37.4109 93.5793 35.608C91.78 33.8287 90.8789 31.589 90.8789 28.895ZM95.0772 28.9687C95.0772 30.7245 95.5516 32.1143 96.5005 33.1382C97.4732 34.1739 98.7563 34.6903 100.35 34.6903C101.943 34.6903 103.238 34.1798 104.199 33.1559C105.16 32.1349 105.64 30.7687 105.64 29.0602C105.64 27.3517 105.16 25.9855 104.199 24.9645C103.226 23.9288 101.943 23.4124 100.35 23.4124C98.7563 23.4124 97.5091 23.9288 96.5363 24.9645C95.5636 26.0003 95.0772 27.334 95.0772 28.9717V28.9687Z" fill="#00C899"></path><path d="M45.3465 0.28717H3.4173C1.86271 0.28717 0.603516 1.5324 0.603516 3.06975V44.5075C0.603516 46.0449 1.86271 47.2901 3.4173 47.2901H45.3465C46.9011 47.2901 48.1603 46.0449 48.1603 44.5075V3.06975C48.1603 1.5324 46.9011 0.28717 45.3465 0.28717ZM13.4013 12.9814C16.4031 10.072 20.0583 8.61722 24.373 8.61722C28.6876 8.61722 32.3816 10.0808 35.4043 13.0109C37.8928 15.4571 39.34 18.3695 39.7518 21.7452H32.8412C32.5368 19.9069 31.8177 18.3666 30.6629 17.1361C29.0725 15.4453 26.9749 14.6014 24.373 14.6014C21.771 14.6014 19.7331 15.4453 18.1427 17.1361C16.9581 18.3961 16.227 19.9364 15.9256 21.7452H9.00607C9.38801 18.3754 10.8501 15.4542 13.4013 12.9814ZM35.3745 34.6224C32.3518 37.5112 28.6459 38.9571 24.2536 38.9571C19.8614 38.9571 16.2539 37.4817 13.3118 34.5339C10.8889 32.1379 9.46857 29.2373 9.04188 25.8291H15.9346C16.236 27.7058 16.9431 29.2668 18.083 30.4943C19.6734 32.1851 21.771 33.029 24.373 33.029C26.9749 33.029 29.0934 32.1939 30.6629 30.5238C31.8356 29.2756 32.5607 27.7029 32.8531 25.8291H39.7518C39.346 29.252 37.8869 32.1851 35.3715 34.6224H35.3745Z" fill="#00C899"></path></g><defs><clipPath id="clip0_437_98"><rect width="191" height="47" fill="white" transform="translate(0.603516 0.28717)"></rect></clipPath></defs></svg>