<svg width="128" height="128" viewBox="0 0 128 128" fill="none" xmlns="http://www.w3.org/2000/svg">
<g clip-path="url(#clip0_20_747)">
<path d="M64 0C96.9353 0 124.104 24.5094 128 56.1545H96.7629C93.2062 41.4686 79.8874 30.5545 64 30.5545C48.1109 30.5545 34.7938 41.4686 31.2371 56.1545H0C3.89632 24.5094 31.0647 0 64 0ZM96.7629 71.8456H128C124.104 103.491 96.9353 128 64 128C31.0647 128 3.89632 103.491 0 71.8456H31.2371C34.7938 86.5314 48.1126 97.4455 64 97.4455C79.8891 97.4455 93.2079 86.5314 96.7629 71.8456Z" fill="#ABA9A9"/>
<path d="M64 85.0586C75.7163 85.0586 85.2156 75.631 85.2156 64C85.2156 52.3708 75.7163 42.9415 64 42.9415C52.282 42.9415 42.7844 52.3691 42.7844 64C42.7844 75.631 52.2837 85.0586 64 85.0586Z" fill="#ABA9A9"/>
</g>
<defs>
<clipPath id="clip0_20_747">
<rect width="128" height="128" fill="white"/>
</clipPath>
</defs>
</svg>
