<svg
    width="24"
    height="24"
    viewBox="0 0 24 24"
    fill="none"
    xmlns="http://www.w3.org/2000/svg"
>
    <g clip-path="url(#clip0)">
        <path
            fill-rule="evenodd"
            clip-rule="evenodd"
            d="M14.707 6.569C17.0836 8.94565 17.2218 12.7131 15.1216 15.2515L19.7111 19.8409C19.9514 20.0813 19.9514 20.4709 19.7111 20.7112C19.4707 20.9515 19.0811 20.9515 18.8408 20.7112L14.2513 16.1218C11.7129 18.2218 7.94559 18.0836 5.569 15.707C3.04561 13.1836 3.04561 9.09239 5.569 6.569C8.09239 4.04561 12.1836 4.04561 14.707 6.569ZM13.8367 14.8367C15.8794 12.794 15.8794 9.48206 13.8367 7.43932C11.7939 5.39658 8.48201 5.39658 6.43927 7.43932C4.39652 9.48207 4.39652 12.794 6.43927 14.8367C8.48201 16.8795 11.7939 16.8795 13.8367 14.8367Z"
            fill="#C4C4C4"
        />
    </g>
    <defs>
        <clipPath id="clip0">
            <rect width="24" height="24" fill="white" />
        </clipPath>
    </defs>
</svg>
