<svg width="112" height="112" viewBox="0 0 112 112" fill="none" xmlns="http://www.w3.org/2000/svg">
<path d="M107.599 34.2016C104.779 27.533 100.743 21.5451 95.6019 16.4033C90.4568 11.2605 84.4648 7.22428 77.8014 4.40216C70.8958 1.48182 63.5611 0 56.001 0C48.4423 0 41.1067 1.48182 34.2031 4.40194C27.5344 7.22406 21.5444 11.2605 16.4037 16.4031C11.2619 21.5449 7.22355 27.5327 4.40341 34.2014C1.48241 41.1072 0.00146484 48.4406 0.00146484 56.0018C0.00146484 63.5594 1.48241 70.8939 4.40341 77.7995C7.22355 84.467 11.2619 90.4551 16.4037 95.6C21.5444 100.741 27.5342 104.777 34.2031 107.597C41.1067 110.518 48.4425 112 56.001 112C63.5611 112 70.8956 110.518 77.8014 107.597C84.4648 104.777 90.4571 100.741 95.6019 95.6C100.743 90.4549 104.779 84.467 107.599 77.7995C110.518 70.8939 112 63.5592 112 56.0018C112 48.4406 110.518 41.1072 107.599 34.2016ZM19.7022 19.7027C29.3991 10.0079 42.2895 4.66663 56.0012 4.66663C69.7141 4.66663 82.6034 10.0079 92.2994 19.7027C100.444 27.8491 105.512 38.2505 106.928 49.4991C104.562 49.941 100.387 50.6539 94.712 51.3618C90.043 51.9441 83.8022 52.5883 76.3235 53.0464C73.9754 44.0174 65.7552 37.3337 56.001 37.3337C46.2473 37.3337 38.0258 44.0174 35.6764 53.0464C28.199 52.5883 21.9582 51.9441 17.2905 51.3618C15.3432 51.1183 13.5739 50.876 11.991 50.6434C13.1651 40.8285 17.5552 31.7492 24.6528 24.6516C33.0255 16.2799 44.1593 11.6669 56.0008 11.6669C56.5971 11.6669 57.1952 11.4396 57.65 10.984C58.5617 10.0724 58.5617 8.59585 57.65 7.68344C57.1954 7.22865 56.5973 7.00027 56.0008 7.00027C42.9122 7.00027 30.6075 12.0981 21.3532 21.3521C13.5499 29.1565 8.70647 39.129 7.37865 49.911C6.4833 49.759 5.71242 49.6184 5.07432 49.4994C6.48702 38.2505 11.5579 27.8493 19.7022 19.7027ZM72.3326 58.3328C72.3326 67.3405 65.0066 74.6683 56.001 74.6683C46.9946 74.6683 39.6686 67.3405 39.6686 58.3328C39.6686 49.3276 46.9946 41.9995 56.001 41.9995C65.0066 41.9995 72.3326 49.3276 72.3326 58.3328ZM4.66831 56.0018C4.66831 55.3927 4.6821 54.7857 4.70266 54.183C9.50863 55.0701 20.0914 56.7654 35.0116 57.6916C35.0041 57.9053 35.0009 58.1184 35.0009 58.333C35.0009 58.8991 35.0234 59.4567 35.0674 60.0078C27.8615 59.5554 21.8318 58.9293 17.2905 58.3608C11.2792 57.6122 6.95011 56.8577 4.67356 56.4233C4.6716 56.2826 4.66831 56.1411 4.66831 56.0018ZM92.2994 92.2975C82.6034 101.996 69.7141 107.333 56.0012 107.333C42.2895 107.333 29.3993 101.996 19.7022 92.2975C11.2501 83.8451 6.10945 72.9594 4.92994 61.2218C9.94723 62.146 20.796 63.8532 36.0056 64.7496C38.7229 73.2015 46.659 79.3329 56.001 79.3329C65.3433 79.3329 73.278 73.2015 75.9954 64.7496C85.9705 64.1616 94.0706 63.2247 99.8804 62.3904C98.5272 71.8031 94.1973 80.4998 87.3514 87.35C78.977 95.7223 67.8399 100.333 56.0012 100.333C55.4049 100.333 54.8066 100.563 54.3521 101.018C53.4394 101.929 53.4394 103.407 54.3521 104.316C54.8066 104.773 55.4049 105 56.0012 105C69.092 105 81.3959 99.9022 90.6476 90.6505C98.5616 82.7343 103.432 72.5971 104.68 61.642C105.585 61.49 106.38 61.3529 107.071 61.222C105.892 72.9592 100.751 83.8451 92.2994 92.2975ZM107.328 56.4231C105.051 56.8575 100.721 57.6122 94.7118 58.3606C90.1692 58.9293 84.1408 59.5552 76.9327 60.0075C76.9798 59.4563 77.0014 58.8989 77.0014 58.3328C77.0014 58.1184 76.997 57.9051 76.9903 57.6914C91.9107 56.7652 102.492 55.0699 107.296 54.1828C107.318 54.7857 107.331 55.3927 107.331 56.0018C107.331 56.1411 107.331 56.2826 107.328 56.4231Z" fill="#43505F"/>
<path d="M56.0003 46.6672C49.5675 46.6672 44.3325 51.9012 44.3325 58.3328C44.3325 64.7667 49.5677 69.9997 56.0003 69.9997C62.432 69.9997 67.6692 64.7667 67.6692 58.3328C67.6694 51.9012 62.432 46.6672 56.0003 46.6672ZM56.0003 65.3328C52.14 65.3328 49.0002 62.1929 49.0002 58.3328C49.0002 54.4735 52.14 51.3338 56.0003 51.3338C59.8586 51.3338 63.0003 54.4738 63.0003 58.3328C63.0003 62.1931 59.8589 65.3328 56.0003 65.3328Z" fill="#43505F"/>
</svg>
