<svg width="40" height="40" viewBox="0 0 40 40" fill="none" xmlns="http://www.w3.org/2000/svg">
<g clip-path="url(#clip0)">
<path d="M38.4276 12.216C37.4205 9.83442 35.9789 7.69514 34.143 5.8586C32.3057 4.02261 30.166 2.58038 27.7855 1.57332C25.3198 0.530241 22.7001 0.00100708 20 0.00100708C17.3004 0.00100708 14.6808 0.530163 12.215 1.57332C9.83341 2.58038 7.69413 4.02269 5.85752 5.8586C4.0216 7.69514 2.57937 9.83442 1.57223 12.216C0.529234 14.6818 0 17.3014 0 20.001C0 22.701 0.529156 25.3207 1.57231 27.7865C2.57937 30.167 4.02168 32.3067 5.85759 34.1427C7.69413 35.9799 9.83341 37.4215 12.215 38.4285C14.6809 39.4711 17.3004 40.0008 20 40.0008C22.7002 40.0008 25.3199 39.4711 27.7856 38.4285C30.166 37.4214 32.3058 35.9799 34.143 34.1427C35.979 32.3067 37.4206 30.1669 38.4277 27.7865C39.4702 25.3207 40 22.701 40 20.001C39.9999 17.3014 39.4701 14.6818 38.4276 12.216Z" fill="#ED5564"/>
<path d="M0.00878906 20.5615C0.0771505 23.0627 0.60201 25.4907 1.57313 27.7856C2.58019 30.166 4.0225 32.3058 5.85842 34.1418C7.69495 35.979 9.83424 37.4205 12.2159 38.4276C14.6817 39.4701 17.3013 39.9999 20.0009 39.9999C22.701 39.9999 25.3207 39.4701 27.7864 38.4276C30.1669 37.4205 32.3066 35.9789 34.1439 34.1418C35.9799 32.3058 37.4214 30.166 38.4285 27.7856C39.4003 25.4907 39.9251 23.0627 39.9935 20.5615H0.00878906Z" fill="#E6E9ED"/>
<path d="M39.9047 21.9703C39.9681 21.3184 39.9999 20.6616 39.9999 20C39.9999 19.2566 39.9596 18.5193 39.8803 17.7899C38.8866 17.9431 37.4596 18.1427 35.6616 18.341C32.2484 18.7176 26.7626 19.1668 20 19.1668C13.2379 19.1668 7.75148 18.7176 4.33896 18.341C2.54031 18.1426 1.11386 17.9431 0.120238 17.7899C0.0403137 18.5193 0 19.2567 0 20C0 20.6616 0.0317197 21.3184 0.0952372 21.9703C3.33986 22.4586 10.4883 23.3325 20 23.3325C29.5117 23.3325 36.66 22.4586 39.9047 21.9703Z" fill="#434A54"/>
<path d="M24.1674 20.8331C24.1674 23.1347 22.3009 24.9999 20 24.9999C17.699 24.9999 15.8331 23.1347 15.8331 20.8331C15.8331 18.532 17.699 16.6668 20 16.6668C22.3009 16.6669 24.1674 18.5321 24.1674 20.8331Z" fill="#E6E9ED"/>
<path d="M20 13.3332C15.8642 13.3332 12.5 16.6981 12.5 20.8332C12.5 24.9683 15.8643 28.3325 20 28.3325C24.1357 28.3325 27.4999 24.9682 27.4999 20.8332C27.4999 16.6981 24.1357 13.3332 20 13.3332ZM20 24.1675C18.1623 24.1675 16.6668 22.6709 16.6668 20.8332C16.6668 18.9954 18.1622 17.5 20 17.5C21.8384 17.5 23.3324 18.9954 23.3324 20.8332C23.3324 22.6708 21.8384 24.1675 20 24.1675Z" fill="#434A54"/>
<path opacity="0.1" d="M27.7856 38.3899C30.1661 37.3587 32.3058 35.8818 34.1418 34.0018C35.9791 32.1212 37.4206 29.9305 38.4277 27.4917C39.4702 24.9667 40 22.2842 40 19.5198C40 19.2342 39.9939 18.9498 39.9829 18.6667C39.8852 21.1299 39.3627 23.5204 38.4277 25.7855C37.4205 28.2242 35.979 30.4142 34.1418 32.2948C32.3058 34.1755 30.166 35.6518 27.7856 36.6836C25.3199 37.7518 22.7002 38.2931 20 38.2931C17.3004 38.2931 14.6808 37.7518 12.2149 36.6837C9.83337 35.6518 7.69401 34.1755 5.85816 32.2949C4.02162 30.4143 2.5793 28.2243 1.57224 25.7856C0.636583 23.5205 0.11469 21.13 0.0170308 18.6667C0.00609292 18.9499 -1.02116e-06 19.2343 -1.00712e-06 19.5199C-8.71174e-07 22.2843 0.529157 24.9667 1.57232 27.4918C2.57938 29.9305 4.0217 32.1212 5.85824 34.0019C7.69416 35.8819 9.83345 37.3587 12.215 38.39C14.6809 39.4581 17.3005 40 20 40C22.7001 40 25.3199 39.4581 27.7856 38.3899Z" fill="black"/>
</g>
<defs>
<clipPath id="clip0">
<rect width="40" height="40" fill="white"/>
</clipPath>
</defs>
</svg>
