<svg width="34" height="34" viewBox="0 0 34 34" fill="none" xmlns="http://www.w3.org/2000/svg">
<path d="M32.9137 30.9686L24.8217 22.5525C26.9023 20.0791 28.0423 16.9672 28.0423 13.7275C28.0423 6.15827 21.884 0 14.3148 0C6.74555 0 0.58728 6.15827 0.58728 13.7275C0.58728 21.2967 6.74555 27.455 14.3148 27.455C17.1564 27.455 19.8643 26.5979 22.1794 24.9709L30.3329 33.4509C30.6737 33.8048 31.1321 34 31.6233 34C32.0883 34 32.5293 33.8227 32.8642 33.5004C33.5756 32.8159 33.5983 31.6807 32.9137 30.9686ZM14.3148 3.58108C19.9096 3.58108 24.4612 8.13264 24.4612 13.7275C24.4612 19.3223 19.9096 23.8739 14.3148 23.8739C8.71992 23.8739 4.16836 19.3223 4.16836 13.7275C4.16836 8.13264 8.71992 3.58108 14.3148 3.58108Z" fill="#B3BCC8"/>
<path d="M1.54547 13.9091H26.2727" stroke="#B3BCC8" stroke-width="3"/>
<path d="M17.8182 13.5227C17.8182 15.4683 16.241 17.0455 14.2954 17.0455C12.3499 17.0455 10.7727 15.4683 10.7727 13.5227C10.7727 11.5772 12.3499 10 14.2954 10C16.241 10 17.8182 11.5772 17.8182 13.5227Z" fill="#EAEDF1" stroke="#B3BCC8" stroke-width="3"/>
</svg>
