<?xml version="1.0" encoding="utf-8"?>
<!DOCTYPE svg PUBLIC "-//W3C//DTD SVG 1.0//EN" "http://www.w3.org/TR/2001/REC-SVG-20010904/DTD/svg10.dtd">
<svg version="1.0" xmlns="http://www.w3.org/2000/svg" width="608px" height="608px" viewBox="0 0 608 608" preserveAspectRatio="xMidYMid meet">
 <g fill="#06274a">
  <path d="M277.5 600 c-3.8 -0.5 -10.8 -1.4 -15.5 -2 -60 -7.8 -121.6 -38.6 -166.6 -83.5 -15.7 -15.6 -25.9 -27.8 -36.1 -43 -24.2 -35.9 -38.4 -70.2 -46.2 -111.3 -4.1 -21.4 -5.1 -32.7 -5.1 -58.1 0 -23.8 1.6 -38.3 7.1 -63.3 10.1 -46.1 31.4 -89 62.9 -126.3 65.5 -77.5 163.3 -115.2 266 -102.5 29.3 3.7 60.4 13 89.5 27 12.7 6.1 35.8 19.5 36.3 21.1 0.2 0.5 0.8 0.9 1.4 0.9 1.6 0 14 9.4 25.3 19.1 34.3 29.6 58.8 62 78.2 103.4 16.4 35.1 24.4 70.3 25.9 113.5 2.3 65.1 -16.5 127.8 -54.1 181 -36.3 51.2 -89.8 90.8 -148.6 110 -19.1 6.3 -41.6 11.3 -51.1 11.4 -3.1 0.1 -5.1 0.4 -4.6 0.7 1.9 1.2 -7.4 1.8 -32.7 2.3 -13.7 0.3 -28.1 0.1 -32 -0.4z m56 -20.5 c51.3 -6 99 -25.7 141.5 -58.5 12.2 -9.5 36.5 -33.8 46 -46 21.6 -27.9 35.8 -54.9 47 -89 12.2 -37 15.9 -73.2 11.5 -111.5 -5.3 -44.8 -23.2 -91.2 -49.9 -129.3 -4.1 -5.9 -8.8 -12.1 -10.3 -13.8 -1.5 -1.7 -6.8 -7.6 -11.6 -13 -4.8 -5.4 -11.9 -12.6 -15.7 -15.9 -3.8 -3.3 -7.2 -7 -7.6 -8.3 -0.3 -1.3 -1.4 -2.2 -2.5 -2.2 -1.1 0 -5.4 -2.8 -9.7 -6.2 -4.2 -3.4 -12.8 -9.4 -18.9 -13.5 -6.2 -4 -11.3 -7.7 -11.3 -8.2 0 -0.5 -1.6 -1.2 -3.5 -1.5 -1.9 -0.4 -3.5 -1.1 -3.5 -1.6 0 -0.5 -0.9 -1.2 -2 -1.5 -1.1 -0.3 -2.6 -1.2 -3.2 -1.8 -1.3 -1.2 -4.8 -2.7 -12.8 -5.5 -2.5 -0.9 -4.6 -1.9 -4.8 -2.4 -0.2 -0.4 -1.1 -0.8 -2 -0.8 -2.3 0 -8.2 -2.3 -8.2 -3.2 0 -0.4 -0.6 -0.8 -1.4 -0.8 -0.8 0 -5.4 -1.3 -10.3 -3 -20.2 -6.8 -40.8 -11.4 -57.8 -13 -51.7 -4.9 -101.4 4.4 -150.9 28.1 -2.2 1.1 -4.4 1.9 -4.8 1.9 -0.5 0 -1.4 0.5 -2.1 1.1 -0.7 0.5 -6.4 4.2 -12.7 8.1 -78.8 48.8 -127.6 129.6 -134 221.8 -2.3 33.3 3.7 72.4 16.3 106.7 11.1 29.9 23.5 52.2 43.6 78.3 8.1 10.6 33.8 36.4 45.1 45.4 42 33.3 92.8 54.1 145 59.5 13.9 1.4 41.5 1.2 55.5 -0.4z"/>
  <path d="M282 427.8 c-1.9 -0.5 -6.4 -1.5 -10 -2.3 -12.5 -2.7 -30.5 -10.5 -31.3 -13.6 -0.3 -1.1 -1.3 -1.9 -2.4 -1.9 -1 0 -2.3 -0.8 -3 -1.9 -0.6 -1 -3.2 -2.9 -5.7 -4.1 -2.5 -1.2 -4.6 -2.6 -4.6 -3.1 0 -0.5 -0.8 -0.9 -1.8 -0.9 -0.9 0 -4.9 -3.3 -8.8 -7.3 -16.7 -17.3 -27.9 -38.6 -33.1 -63 -2.5 -11.7 -2.4 -40 0 -51.5 8.4 -38.4 32.4 -69.6 66.2 -85.8 12.4 -5.9 23.5 -9.7 34.5 -11.5 10 -1.7 36.5 -1.7 46 0 30 5.4 60.1 24.1 77.2 47.8 11.3 15.6 18.1 30.7 21.9 48.7 2.5 11.7 3.1 38.5 1 49.6 -3.1 17 -10 33.8 -19.7 48.6 -6 9.1 -24.1 28.4 -26.7 28.4 -0.8 0 -1.7 0.7 -2.1 1.5 -0.3 0.8 -1.2 1.5 -2 1.5 -0.8 0 -2.8 1.2 -4.3 2.6 -3.8 3.6 -23.4 12.9 -30.9 14.8 -3.4 0.9 -7.8 1.6 -9.7 1.6 -1.9 0 -3.7 0.4 -3.9 1 -0.5 1.4 -16.8 2.6 -16.8 1.1 0 -0.7 -2.7 -1.1 -8 -1.1 -4.7 0 -8 0.4 -8 1 0 1.2 -9.3 1.1 -14 -0.2z m46.5 -27.7 c15.8 -4.3 31.3 -13.2 43.8 -25.1 15.3 -14.5 24.8 -32.3 30.1 -56.2 l0.6 -2.8 -21.7 0 c-12 0 -22.3 0.4 -22.8 0.8 -0.6 0.4 -1.7 2.7 -2.4 5.2 -4.3 14.7 -16.2 27.3 -31.3 33.2 -4.1 1.6 -8.4 2.2 -19.1 2.5 -9.5 0.4 -14.2 0.2 -15 -0.6 -0.6 -0.6 -2.3 -1.1 -3.7 -1.1 -8.1 0 -25.4 -14.2 -31 -25.6 -1.8 -3.6 -3.5 -8.3 -3.7 -10.5 l-0.6 -3.9 -21.2 0 c-11.8 0 -22 0.3 -22.8 0.6 -3.3 1.2 4 24 12 37.5 5.7 9.6 18.8 23.9 27.7 30.3 7.2 5.1 17.6 10.6 25.1 13.1 2.7 0.9 5.3 2.2 5.7 2.8 2 3.3 38 3.1 50.3 -0.2z m-16.5 -67.7 c4.3 -1.3 6.8 -3 12.1 -8.3 10.5 -10.5 12.2 -19.2 6.3 -31.7 -4.5 -9.6 -15.6 -16.9 -25.4 -16.8 -9.8 0.1 -12.8 1.2 -19 7.3 -6.8 6.6 -10 12.4 -10.7 19.5 -1 10.3 6.6 22.9 16.9 27.9 8.4 4.1 11.8 4.5 19.8 2.1z m-61.3 -40.6 c0.5 -0.7 2 -4.2 3.3 -7.7 2.7 -7.7 8.7 -16.9 13.8 -21.1 10.7 -8.9 27.6 -13.7 42.2 -12.1 20.8 2.4 35 11.8 43.1 28.8 2.1 4.5 3.9 8.8 3.9 9.5 0 3.5 2.1 3.8 24.2 3.8 17.3 0 21.8 -0.3 21.8 -1.3 0 -3.7 -4.6 -18 -8.4 -26.2 -5.6 -11.9 -11.3 -20.2 -20 -29.3 -16.2 -16.9 -33.1 -25.7 -56.6 -29.8 -24.1 -4.1 -48.1 2.2 -71.3 18.7 -13.1 9.3 -23.5 21.7 -31.5 37.4 -3.5 7 -9.6 27.1 -8.8 29.1 0.7 1.9 42.8 2.1 44.3 0.2z"/>
  <path d="M553 337.1 l0 -4.1 4.1 0 4 0 -0.3 3.8 c-0.3 3.5 -0.5 3.7 -4 4 l-3.8 0.3 0 -4z"/>
  <path d="M39.7 322.3 c-0.4 -0.3 -0.7 -7.8 -0.7 -16.5 0 -64.6 21.2 -124.7 60.4 -171.5 43.6 -51.9 102.1 -84.1 168.6 -92.8 60.2 -8 121.1 4 171.7 33.6 64.3 37.7 110.5 102.2 124.3 173.2 4.6 23.9 6.9 51.4 5.5 66.8 l-0.7 8.1 -4.7 -0.5 c-2.5 -0.3 -13.6 -2.4 -24.6 -4.7 -11 -2.3 -26.3 -5.3 -34 -6.6 -7.7 -1.3 -16 -2.8 -18.5 -3.4 -2.5 -0.5 -11.9 -1.9 -21 -3.1 -9.1 -1.1 -18.3 -2.4 -20.5 -2.8 l-3.9 -0.6 -1.7 -12 c-0.9 -6.6 -2.6 -15.4 -3.7 -19.6 -4.1 -15.2 -12.7 -33.1 -22.2 -45.7 -4.7 -6.2 -23.4 -26.2 -24.5 -26.2 -0.6 0 -13.5 -8.9 -14.5 -10 -0.3 -0.3 -2.6 -1.6 -5.2 -3 -2.7 -1.3 -4.8 -2.8 -4.8 -3.2 0 -0.5 -0.8 -0.8 -1.8 -0.8 -1 0 -2.4 -0.9 -3.2 -2 -0.8 -1.1 -2.5 -2 -3.7 -2 -1.3 0 -2.3 -0.4 -2.3 -0.9 0 -0.5 -2.5 -1.3 -5.5 -1.6 -3.7 -0.5 -5.5 -1.2 -5.5 -2.1 0 -0.9 -1.2 -1.4 -3.5 -1.4 -1.9 0 -3.5 -0.4 -3.5 -0.9 0 -0.4 -2.2 -0.6 -4.9 -0.3 -4.3 0.4 -4.9 0.2 -5.4 -1.8 -0.4 -1.7 -1 -2.1 -2.4 -1.5 -1 0.4 -3.9 1 -6.5 1.2 -3.8 0.4 -4.9 0.2 -5.4 -1.1 -0.9 -2.2 -11.4 -2.4 -11.4 -0.1 0 1 -1 1.5 -3.2 1.5 -1.8 0 -7.3 0.7 -12.3 1.6 -7.5 1.4 -14.1 2.1 -21.1 2.4 -0.7 0 -1.4 0.9 -1.7 1.9 -0.3 1.2 -1.8 2.2 -3.8 2.6 -5.3 1.2 -22.5 10.5 -32.4 17.5 -32 22.8 -53.9 60.9 -57.2 99.5 -0.4 5.6 -1 7.6 -2.2 8 -0.9 0.2 -8.1 1.4 -16.1 2.5 -25.6 3.6 -64.8 10.5 -88 15.4 -18.1 3.9 -21 4.3 -22.3 2.9z"/>
  <path d="M442 318.1 l0 -4.1 4.1 0 4 0 -0.3 3.8 c-0.3 3.5 -0.5 3.7 -4 4 l-3.8 0.3 0 -4z"/>
 </g>
 <g fill="#003c73">
  <path d="M287 569 c-14.6 -0.7 -17.7 -1.1 -34.5 -4.1 -41.6 -7.5 -81.4 -25.9 -116.5 -54 -12.2 -9.8 -33.5 -31.7 -42.8 -44.2 -25.4 -33.8 -38.5 -62.2 -48.2 -104.7 -1.1 -5.2 -2.4 -13.4 -2.7 -18.2 -0.6 -8.6 -0.6 -8.7 1.8 -9.2 1.3 -0.3 5.3 -1.2 8.9 -2 29.7 -6.9 103.9 -19.1 111.4 -18.4 2.6 0.3 3.1 0.8 3.7 3.8 0.4 1.9 1.4 7.1 2.3 11.5 5.2 26 17 48.3 36.7 68.9 22.1 23.1 47.1 36.2 78.9 41.1 18.4 2.9 42.8 0.8 59.7 -4.9 31.5 -10.8 59.6 -33.9 76.6 -62.8 8.7 -14.7 15.7 -35.2 17.5 -50.6 l0.7 -6.7 7.5 0.3 c7.9 0.2 24.6 2.3 39 4.8 4.7 0.9 11.2 1.9 14.6 2.4 11.9 1.8 44.1 8.1 54.7 10.7 l10.7 2.7 0 5.2 c0 2.9 -1.1 10.8 -2.5 17.6 -8.6 42.5 -23.8 75.7 -51 111.3 -8.6 11.3 -32.2 35 -43.6 43.7 -53.7 41.5 -112.3 59.4 -182.9 55.8z"/>
  <path d="M294.9 429.6 c-0.3 -0.3 -4.5 -1 -9.4 -1.6 -14.3 -1.7 -15.5 -2 -15.5 -4 0 -1.2 1 -1.9 3 -2.2 1.7 -0.3 3 0 3 0.5 0 0.5 1 0.7 2.1 0.4 1.3 -0.3 2.8 0 3.6 0.9 1.2 1.2 1.8 1.2 3 0.2 1.2 -1 1.7 -0.9 2.4 0.5 1.2 2.1 5.9 2.3 5.9 0.3 0 -1.1 2 -1.4 10.6 -1.2 5.8 0.1 10.8 0.6 11.2 1.1 1.2 1.7 4.2 1.7 4.2 0 0 -0.8 0.9 -1.5 2 -1.5 1.1 0 2 0.5 2 1 0 0.6 0.7 1 1.5 1 0.8 0 1.5 -0.7 1.5 -1.6 0 -1.2 0.6 -1.5 2.5 -1 1.4 0.4 2.5 0.2 2.5 -0.4 0 -1.4 2.7 -1.2 3.3 0.3 0.3 0.7 0.6 0.5 0.6 -0.5 0.1 -1.8 3.1 -2.6 3.1 -0.8 0 0.5 0.7 0.7 1.5 0.4 1 -0.4 1.5 0 1.5 1.4 0 2.4 -3.7 3.4 -23 6.2 -6.8 0.9 -22.3 1.3 -23.1 0.6z"/>
  <path d="M233.5 408.8 c-7.6 -5.1 -10.5 -7.8 -10.5 -9.5 0 -0.7 -0.9 -1.3 -2 -1.3 -1.6 0 -2 -0.7 -2 -3.1 0 -2.9 0.2 -3 1.8 -1.8 0.9 0.8 2.2 2 2.8 2.8 0.6 0.8 1.6 1.1 2.2 0.7 0.6 -0.3 1.6 0.3 2.2 1.5 0.7 1.1 1.4 1.8 1.7 1.5 0.8 -0.8 9.3 5.3 9.3 6.6 0 0.6 0.3 0.8 0.6 0.5 0.9 -0.9 4.4 1.1 4.4 2.5 0 0.6 0.8 1.7 1.8 2.4 1.5 1.2 1.2 1.3 -2.3 1.3 -3 0 -5.4 -0.9 -10 -4.1z"/>
  <path d="M369 408.1 c0 -0.5 0.7 -1.2 1.6 -1.5 1 -0.4 1.4 -1.2 1 -2.2 -0.5 -1.3 -0.1 -1.5 1.9 -1 1.7 0.4 2.7 0.2 3.1 -0.8 0.3 -0.8 1.4 -1.6 2.5 -1.9 1.5 -0.4 1.9 0 1.9 1.9 0 1.7 -0.6 2.4 -1.9 2.4 -1 0 -2.1 0.9 -2.4 2 -0.4 1.5 -1.4 2 -4.1 2 -2 0 -3.6 -0.4 -3.6 -0.9z"/>
  <path d="M301.5 407 c0.3 -0.5 -0.3 -1 -1.5 -1 -1.3 0 -2 -0.5 -1.8 -1.2 0.3 -0.8 2.7 -1.4 6.1 -1.6 4.6 -0.2 5.7 0 5.7 1.3 0 1.5 -1.6 1.9 -5.4 1.5 -1.1 -0.1 -1.5 0.3 -1.2 0.9 0.4 0.6 0 1.1 -0.9 1.1 -0.9 0 -1.3 -0.4 -1 -1z"/>
  <path d="M275 403 c-1.8 -1.6 -2.5 -1.7 -3.2 -0.8 -0.6 1 -0.8 1 -0.8 0 0 -0.7 -0.4 -1.1 -0.9 -0.8 -1.2 0.8 -4.2 -0.4 -3.6 -1.4 0.3 -0.4 -0.5 -1.1 -1.8 -1.5 -2.2 -0.8 -2.2 -0.8 0.3 -1.2 1.4 -0.3 6.9 0.5 12.3 1.8 7.7 1.9 9.7 2.8 9.7 4.1 0 2.7 -8.9 2.5 -12 -0.2z"/>
  <path d="M290.8 357.3 c-2.9 -0.3 -3.8 -0.9 -3.8 -2.2 0 -2.3 5.6 -3.5 6.4 -1.4 0.6 1.5 4.1 1.4 6.5 -0.2 1 -0.5 1.6 -0.4 1.9 0.3 0.5 1.7 3.3 1.5 4.7 -0.4 1 -1.5 1.3 -1.5 2.7 0 2.1 2 3.7 2 4.4 0.1 0.7 -1.6 3.4 -2.1 3.4 -0.5 0 0.5 0.7 0.7 1.5 0.4 0.8 -0.4 1.5 -1.2 1.5 -2 0 -0.8 0.7 -1.4 1.5 -1.4 0.8 0 1.5 0.4 1.5 1 0 0.5 0.7 0.7 1.5 0.4 1 -0.4 1.5 0 1.5 1.4 0 4.2 -17.2 6.4 -35.2 4.5z"/>
  <path d="M557.8 322.3 c-3.6 -0.6 -3.8 -3.9 -0.3 -4.5 1.3 -0.3 2.6 -0.2 2.7 0.2 0.2 0.4 1.5 1 3 1.3 2.2 0.6 2.7 0.3 3.1 -1.5 0.3 -1.4 0.5 -0.9 0.6 1.5 0.1 3.6 0 3.7 -3.1 3.6 -1.8 -0.1 -4.5 -0.4 -6 -0.6z"/>
  <path d="M50 319.6 c0 -0.8 1.1 -1.7 2.5 -2 1.4 -0.4 2.5 -1.1 2.5 -1.6 0 -1.5 3 -1.2 3 0.3 0.1 0.7 0.6 0.5 1.4 -0.5 1.4 -1.9 3.6 -2.4 3.6 -0.9 0 0.6 1.2 0.6 3 0 1.7 -0.6 3 -1.5 3 -2 0 -1.4 3 -1.1 3 0.4 0.1 0.7 0.6 0.5 1.4 -0.5 1.5 -2.1 3.6 -2.4 3.6 -0.5 0.1 0.7 0.6 0.5 1.4 -0.5 1.5 -2 3.6 -2.4 3.6 -0.7 0 0.6 0.7 0.9 1.5 0.5 1 -0.4 1.5 0.1 1.5 1.4 0 1.1 -0.1 2 -0.2 2 -0.8 0 -20.9 4.1 -24.3 5 -5.9 1.4 -10.5 1.3 -10.5 -0.4z"/>
  <path d="M250.3 316.5 c-1.7 -1.9 -1.6 -3.5 0.2 -3.5 0.8 0 1.5 -0.5 1.5 -1.1 0 -0.6 0.7 -0.4 1.5 0.5 2.1 2.1 1.9 5.6 -0.2 5.6 -1 -0.1 -2.4 -0.7 -3 -1.5z"/>
  <path d="M482 306.1 c0 -1.4 0.9 -2 3.5 -2.3 1.9 -0.2 3.5 0 3.5 0.4 0 0.4 0.7 0.8 1.5 0.8 0.8 0 1.5 0.7 1.5 1.5 0 1.1 -1.2 1.5 -5 1.5 -4.2 0 -5 -0.3 -5 -1.9z"/>
  <path d="M286.4 277.1 c1 -1.1 1.5 -2.4 1.2 -3 -0.4 -0.5 0.3 -1.3 1.5 -1.6 1.2 -0.4 2.4 -0.2 2.8 0.4 0.9 1.4 5.1 0.2 5.1 -1.5 0 -0.8 0.7 -1.4 1.5 -1.4 0.8 0 1.5 0.5 1.5 1 0 0.6 0.7 1 1.5 1 0.8 0 1.5 0.7 1.5 1.5 0 1 -1.1 1.5 -3.5 1.5 -2.2 0 -4.3 0.8 -5.5 2 -1.3 1.3 -3.3 2 -5.7 2 -3.5 0 -3.6 -0.1 -1.9 -1.9z"/>
  <path d="M392.3 200.5 c-2.9 -3.1 -3 -6.1 -0.3 -6.1 1.1 0 2 0.4 2 0.9 0 0.6 0.8 1.7 1.8 2.6 0.9 0.9 2.3 2.4 3.1 3.4 1.2 1.5 1.1 1.7 -1.5 1.6 -1.7 0 -3.8 -1 -5.1 -2.4z"/>
  <path d="M373 185.5 c0 -2.2 -0.5 -2.5 -3.2 -2.5 -1.8 0 -4.5 -0.6 -5.9 -1.4 -5.5 -2.8 -19.7 -7.9 -28.4 -10.1 -19.6 -4.9 -38.7 -5.7 -52.8 -2 -3.2 0.8 -6.7 1.5 -7.8 1.5 -1 0 -2.7 0.4 -3.7 0.9 -3.1 1.5 -8.8 3.1 -11.4 3.1 -1.4 0 -2.8 0.7 -3.2 1.5 -0.3 1 -1.9 1.5 -4.6 1.5 -4 0 -5.3 -1.3 -2.5 -2.4 0.8 -0.3 1.5 -1.2 1.5 -2.1 0 -1.6 2.6 -2.1 3.2 -0.6 0.5 1.3 4.8 -0.6 4.8 -2.2 0 -1.8 9.3 -4.4 9.8 -2.8 0.2 0.6 0.8 1.1 1.3 1.1 0.4 0 0.6 -0.7 0.3 -1.5 -0.7 -1.8 1.7 -2 3.5 -0.2 1 1 1.1 0.9 0.6 -0.5 -0.5 -1.4 -0.2 -1.8 1.3 -1.8 1.2 0 2.4 0.5 2.7 1 1 1.6 2.5 1.2 1.9 -0.5 -0.4 -1 0 -1.5 1.5 -1.5 1.2 0 2.1 0.5 2.1 1 0 0.6 0.9 1 2 1 1.3 0 1.8 -0.5 1.4 -1.5 -0.5 -1.1 0.1 -1.5 2 -1.5 1.4 0 2.6 0.5 2.6 1 0 0.6 1.1 1 2.5 1 1.8 0 2.3 -0.4 1.9 -1.5 -0.5 -1.2 0.4 -1.5 4.2 -1.7 8.4 -0.3 12.8 0.3 14 1.9 1 1.4 1.5 1.4 4 0.2 4 -1.9 9.5 -1.3 10.1 1.2 0.6 2.3 1.6 2.4 3.2 0.5 1 -1.1 1.9 -1.2 4.2 -0.4 1.6 0.5 2.9 1.4 2.9 2 0 0.5 0.8 0.7 1.9 0.3 2.5 -0.8 5.1 0.4 5.1 2.4 0 1.4 0.2 1.4 1.1 0.1 0.7 -1.1 1.2 -1.2 1.5 -0.3 0.3 0.7 1.2 0.9 2 0.6 0.8 -0.3 1.4 0 1.4 0.6 0 0.6 0.6 0.8 1.4 0.5 0.7 -0.3 2 0.1 2.7 0.9 0.8 0.7 1.9 1.2 2.5 1 0.7 -0.2 1.8 0.3 2.7 1.1 0.8 0.8 1.7 1.2 2.1 0.9 0.3 -0.4 0.6 0.2 0.6 1.3 0 1.6 0.2 1.7 1 0.4 0.7 -1.1 1 -1.1 1 -0.2 0 0.7 0.5 1 1 0.7 0.6 -0.3 1 0.2 1 1.2 0 1.5 0.2 1.6 1 0.3 0.9 -1.3 1 -1.3 1 0 0 1.9 5.6 5.4 7 4.5 0.6 -0.3 1 -0.1 1 0.6 0 0.6 0.8 1.8 1.8 2.5 1.5 1.2 1.2 1.3 -2.5 1.4 -3.9 0 -4.3 -0.2 -4.3 -2.5z"/>
  <path d="M522 134 c0 -1.1 -0.7 -2 -1.5 -2 -1.1 0 -1.5 -1.1 -1.5 -3.7 0.1 -3.1 0.3 -3.5 1.1 -2 0.6 0.9 1.4 1.5 2 1.2 0.5 -0.4 0.9 -0.1 0.9 0.5 0 0.6 1.2 2.7 2.6 4.6 l2.6 3.4 -3.1 0 c-2.4 0 -3.1 -0.4 -3.1 -2z"/>
  <path d="M482.2 93.7 c-2.6 -2.7 -3.2 -7.8 -0.7 -5.7 1.1 0.9 1.5 0.9 1.5 0.1 0 -0.9 0.5 -0.9 2 -0.1 1.1 0.6 2 1.7 2 2.5 0 0.8 1 2.3 2.2 3.5 l2.2 2 -3.5 0 c-2.4 0 -4.3 -0.7 -5.7 -2.3z"/>
  <path d="M440 64.2 c-1.4 -0.9 -2.6 -2 -2.8 -2.4 -0.2 -0.5 -1 -0.8 -1.8 -0.8 -2.5 0 -18.4 -8.4 -18.4 -9.7 0 -0.8 -1.3 -1.3 -3.5 -1.3 -2.8 0 -3.5 -0.4 -3.5 -1.9 0 -1.2 0.9 -2 2.5 -2.3 1.6 -0.3 2.5 -0.1 2.5 0.7 0 1.4 4.6 2.9 6 2 0.6 -0.4 1 -0.1 1 0.5 0 0.6 0.5 0.8 1 0.5 0.6 -0.3 1 -0.1 1 0.5 0 0.6 0.5 0.8 1 0.5 0.6 -0.3 1 -0.1 1 0.5 0 0.6 0.5 0.8 1 0.5 0.6 -0.3 1 -0.2 1 0.4 0 0.6 0.7 0.8 1.5 0.5 0.8 -0.4 1.7 0.1 2.1 1 0.3 0.9 1 1.3 1.5 1 0.5 -0.3 0.9 0 0.9 0.6 0 0.6 0.5 0.8 1 0.5 0.6 -0.3 1 -0.1 1 0.5 0 0.6 0.5 0.8 1 0.5 0.6 -0.3 1 0.1 1 0.9 0 0.9 0.8 1.7 1.8 1.8 0.9 0 2.2 0.2 2.7 0.2 1 0.2 6.5 5.3 6.5 6.1 0 1.2 -6.8 0.2 -9 -1.3z"/>
  <path d="M168.5 60.1 c-0.3 -0.5 0.4 -1.2 1.4 -1.6 1.3 -0.4 1.8 -1.2 1.4 -2.2 -0.5 -1.3 -0.1 -1.5 2 -0.9 1.4 0.3 2.8 0.2 3.1 -0.3 0.3 -0.5 1.5 -1.1 2.6 -1.4 1.6 -0.4 2 0 2 1.9 0 1.7 -0.6 2.4 -1.9 2.4 -1 0 -2.1 0.7 -2.5 1.5 -0.6 1.7 -7.1 2.1 -8.1 0.6z"/>
  <path d="M398.8 45.3 c-1.1 -0.3 -1.8 -1.4 -1.8 -2.8 0 -2.2 0.2 -2.4 2.7 -1.4 1.4 0.5 3.2 0.8 4 0.5 0.7 -0.3 1.3 0.1 1.3 0.9 0 0.8 0.7 1.5 1.5 1.5 0.8 0 1.5 0.5 1.5 1 0 1 -5.9 1.2 -9.2 0.3z"/>
  <path d="M231 35 c0 -0.5 0.7 -1 1.5 -1 0.8 0 1.5 -0.7 1.5 -1.5 0 -1.8 2.6 -2 3.3 -0.2 0.3 0.7 0.6 0.5 0.6 -0.5 0.1 -2.1 2.7 -2.4 3.4 -0.5 0.3 0.7 0.6 0.5 0.6 -0.5 0.1 -2 3.1 -2.5 3.1 -0.5 0.1 0.7 0.6 0.5 1.4 -0.5 1.5 -2.1 3.6 -2.4 3.6 -0.5 0 0.6 0.7 0.3 1.6 -0.8 1.2 -1.7 1.8 -1.8 3.4 -0.7 1.7 1 2.1 1 2.6 -0.3 0.7 -1.8 3 -2 3.8 -0.2 0.3 0.9 0.9 0.7 1.9 -0.5 1.5 -2 3.7 -2.4 3.7 -0.8 0 1.4 4.3 0.6 4.8 -0.8 0.5 -1.5 3.2 -1.6 3.2 -0.2 0 1.6 5 1.2 5.6 -0.5 0.7 -1.7 3.4 -2.1 3.4 -0.5 0 0.6 0.3 0.9 0.8 0.9 2.4 -0.4 4.2 0.3 4.2 1.6 0 1.1 -1.1 1.5 -4.2 1.5 -2.3 0 -8 0.7 -12.7 1.5 -4.7 0.8 -11.7 2 -15.6 2.6 -3.8 0.6 -9.5 1.8 -12.6 2.5 -6.7 1.6 -12.9 1.8 -12.9 0.4z"/>
  <path d="M359 32.1 c0 -2.5 4.8 -3.2 7.3 -1.1 2.7 2.3 2 3 -2.8 3 -3.8 0 -4.5 -0.3 -4.5 -1.9z"/>
  <path d="M343 30.4 c-0.8 -0.1 -4.1 -0.6 -7.2 -0.9 -4.1 -0.5 -5.8 -1.1 -5.8 -2.1 0 -0.8 0.7 -1.4 1.5 -1.4 0.8 0 1.5 -0.6 1.5 -1.2 0 -0.9 0.3 -0.9 0.9 0.1 0.6 1 2.2 1.2 5.5 0.9 2.5 -0.3 4.7 -0.1 4.8 0.4 0.5 1.4 4.2 1.7 5 0.4 0.5 -0.8 0.8 -0.7 0.8 0.2 0 0.6 0.7 1.2 1.5 1.2 0.8 0 1.5 0.7 1.5 1.5 0 1.1 -1.1 1.5 -4.2 1.4 -2.4 -0.1 -5 -0.3 -5.8 -0.5z"/>
  <path d="M316 26.6 c0 -1.7 9.3 -4.3 9.8 -2.7 0.2 0.6 1 1.1 1.8 1.1 0.8 0 1.4 0.7 1.4 1.5 0 1.2 -1.4 1.5 -6.5 1.5 -4.9 0 -6.5 -0.3 -6.5 -1.4z"/>
 </g>
 <g fill="#b8b9bb">
  <path d="M275 582.9 c-52.2 -5.4 -103 -26.2 -145 -59.5 -11.3 -9 -37 -34.8 -45.1 -45.4 -15.3 -19.8 -25.3 -36.2 -34.4 -56 -29.2 -63.9 -33.9 -132.2 -13.8 -199 5.5 -18.3 16.9 -44.1 27.3 -62 17.2 -29.4 46.7 -61.7 76 -83.1 55.7 -40.8 128.7 -59.8 197.5 -51.5 91.7 11.1 172.8 67.2 214.8 148.6 17.2 33.2 27.4 67.3 30.6 102 2 21.2 2.2 31.8 1.1 45 -2.3 27.1 -5.7 45.1 -13 67 -15 45.6 -36.1 80.2 -68.9 113.1 -28.6 28.5 -58.8 48.3 -96.6 63.2 -33.4 13.2 -64.3 18.8 -102 18.6 -11 -0.1 -23.8 -0.6 -28.5 -1z m62.5 -18.5 c39.3 -4.8 75.9 -18.2 108.5 -39.5 18.4 -12 28 -19.8 43.6 -35.4 38 -38 61.1 -81.1 71.9 -134.3 2.9 -14.5 3.1 -17.2 0.9 -17.2 -1 0 -1.4 -0.6 -1 -1.7 0.3 -1 0.8 -5.1 1.2 -9 0.4 -4.8 1.1 -7.3 1.9 -7.3 2.9 0 2.6 -29.9 -0.4 -51.5 -8 -55.8 -31.8 -105.1 -70 -144.8 -59.1 -61.3 -140.3 -90 -223.6 -79.2 -56.1 7.4 -106.7 31.6 -146.9 70.5 -33 31.9 -53.9 64.7 -67.8 106.3 -8.9 26.8 -14.2 60 -13.6 85.7 0.3 11.3 0.5 12.5 2.1 12.2 1.4 -0.2 1.7 0.5 1.7 4.5 0 2.6 0.5 6.6 1 8.8 0.8 3.3 0.6 4.2 -0.7 5.2 -1.9 1.4 -1.4 6.3 1.8 21.3 11.2 51.1 32.5 90.9 68.4 127.9 38.3 39.5 86.7 65.6 139 75 17 3 20 3.4 34.5 4 17.8 0.8 32.8 0.3 47.5 -1.5z"/>
  <path d="M282.5 442.5 c-31.2 -4.9 -56.6 -18.3 -78.4 -41.1 -21.7 -22.7 -34.4 -48.7 -38.6 -78.7 -0.4 -2.8 -1.3 -5.1 -2.1 -5.4 -2 -0.7 -2 -18.1 0 -18.9 0.8 -0.3 1.5 -3.1 1.9 -7.9 3.9 -45.1 32.2 -87.6 73.2 -109.6 6.4 -3.4 23.8 -10.4 28.2 -11.4 1 -0.2 5 -1 8.8 -1.9 16.4 -3.5 37 -4.4 48.5 -2.1 1.4 0.3 5.2 1 8.4 1.6 8.3 1.5 25.1 7.1 32.7 10.9 18.8 9.4 39.6 26.7 51.7 43 14.2 18.9 23.3 42 26.3 66.5 0.7 5.6 1.8 10.5 2.5 11.1 0.9 0.7 1.2 3.6 1.1 9.7 -0.1 6.9 -0.5 8.7 -1.8 9 -1.2 0.3 -1.7 2.1 -2.2 6.9 -1.3 14.5 -8.7 35.9 -17.4 50.6 -17 28.9 -45.1 52 -76.6 62.8 -17 5.8 -46.7 8 -66.2 4.9z m41.5 -17.5 c12.5 -2.5 22 -5.4 30.6 -9.5 32.8 -15.4 56.6 -42.7 66.8 -76.6 3.8 -12.8 4.8 -20.1 4.8 -34.9 0 -26.8 -7.5 -49.5 -24 -72.3 -17.1 -23.7 -47.3 -42.4 -77.2 -47.8 -9.4 -1.7 -30.1 -1.7 -40 0 -11 1.8 -22 5.5 -34.5 11.5 -33.8 16.2 -57.9 47.5 -66.1 85.8 -2.4 11 -2.4 35 0 46.1 8.1 37.4 30.8 68 63.1 84.8 14.6 7.7 31 12.6 47.5 14.2 6 0.6 23.3 -0.2 29 -1.3z"/>
 </g>
 <g fill="#ffffff">
  <path d="M285 404.9 c-23.1 -5.2 -39.9 -14.5 -55.2 -30.8 -13.6 -14.5 -22.8 -32.6 -25.9 -51.4 -1.1 -6.8 -1.1 -8 0.1 -8.7 0.8 -0.6 12.4 -1 25.7 -1 l24.2 0 1.2 4.3 c3.1 11.6 12.3 23.9 23.1 30.8 10.8 7 27.8 9 41 4.9 15.8 -4.9 29.3 -18.4 33.9 -34 0.7 -2.5 1.8 -4.8 2.4 -5.2 0.5 -0.4 12.1 -0.8 25.8 -0.8 l24.7 0 0 3.4 c0 5.7 -4.7 22.1 -8.9 31 -12.7 27.3 -37 47.8 -65.6 55.7 -6.5 1.8 -11.2 2.3 -25 2.5 -9.3 0.2 -19 -0.2 -21.5 -0.7z"/>
  <path d="M296.5 336.3 c-9.2 -2 -19 -10.7 -22.6 -20.3 -3.1 -8.1 -2.4 -19.5 1.6 -26.9 12.6 -23.1 47 -22.7 58.1 0.7 3.5 7.5 4.3 16.7 1.9 24.7 -1.4 4.9 -2.8 7 -8.4 12.6 -5.3 5.3 -7.8 7 -12.1 8.3 -5 1.5 -13.9 1.9 -18.5 0.9z"/>
 </g>
 <g fill="#e70028">
  <path d="M203.2 294.8 c-1.8 -1.8 -1.6 -3.1 2.4 -16.7 7 -24.6 19.3 -42.6 38.1 -56 10 -7.1 17.4 -11.1 27.1 -14.5 7.9 -2.8 10 -3.3 22.4 -5 23.2 -3.3 52.3 4.4 71.3 18.7 7.9 6 19.1 17.7 24.5 25.6 8.6 12.8 16.5 33.3 17.3 44.6 l0.2 4 -24.9 0.3 c-25.2 0.2 -27.6 -0.1 -27.6 -3.5 0 -0.8 -1.8 -5.1 -3.9 -9.6 -6.4 -13.3 -15.9 -21.5 -30.5 -26.2 -16.7 -5.4 -35.1 -1.8 -48.8 9.6 -5 4.1 -11.1 13.3 -13.8 21 -1.3 3.5 -2.8 7 -3.3 7.7 -1.3 1.7 -48.7 1.8 -50.5 0z"/>
 </g>
 <g fill="#8cd8ff">
  <path d="M560.5 337.5 c-6.3 -2.1 -45.9 -10 -64.5 -12.8 -1.9 -0.3 -7.3 -1.2 -12 -2.1 -4.7 -0.8 -14.3 -2.2 -21.5 -3.1 -16.8 -2.1 -18.9 -2.7 -19.3 -4.9 -0.2 -1.1 -0.1 -5.2 0.3 -9.1 l0.6 -7.2 4.2 0.8 c2.3 0.4 8.3 1.2 13.2 1.9 25 3.2 72.6 11.8 95.8 17.2 l8.7 2 -0.1 4.7 c0 2.5 -0.4 6.7 -0.7 9.3 l-0.7 4.6 -4 -1.3z"/>
  <path d="M43.4 332 c-0.4 -3.3 -1.1 -6 -1.5 -6 -0.8 0 -0.2 -4.8 0.6 -5.8 0.2 -0.2 12.4 -2.8 27.1 -5.8 28.3 -5.7 53.3 -10 77.4 -13.4 8 -1.1 15.3 -2.3 16.3 -2.6 1.5 -0.5 1.7 0.4 1.7 9.6 0 5.6 -0.4 9.9 -0.9 9.6 -2.5 -1.6 -76.6 10.9 -112.1 18.9 -3.6 0.8 -6.8 1.4 -7.2 1.5 -0.4 0 -1 -2.7 -1.4 -6z"/>
 </g>
</svg>