<svg width="150" height="160" viewBox="0 0 150 160" fill="none" xmlns="http://www.w3.org/2000/svg">
<path id="search" fill-rule="evenodd" clip-rule="evenodd" d="M66.3008 20.2148C40.1386 20.2148 18.9423 42.8299 18.9423 70.7609C18.9423 98.668 40.1386 121.307 66.3008 121.307C92.4554 121.307 113.652 98.668 113.652 70.7609C113.652 42.8299 92.4554 20.2148 66.3008 20.2148V20.2148ZM149.91 145.707L136.518 160L106.042 127.472C94.9642 136.338 81.2577 141.638 66.3603 141.638C29.7049 141.638 0 109.934 0 70.8189C0 31.6962 29.7049 0 66.3603 0C103.001 0 132.713 31.6962 132.713 70.8189C132.713 86.727 127.732 101.364 119.441 113.187L149.91 145.707Z" fill="#423B3B"/>
</svg>
