<svg width="16" height="16" viewBox="0 0 16 16" fill="none" xmlns="http://www.w3.org/2000/svg">
<path d="M7.9999 8.7L4.4999 12.2C4.3999 12.3 4.28324 12.35 4.1499 12.35C4.01657 12.35 3.8999 12.3 3.7999 12.2C3.6999 12.1 3.6499 11.9833 3.6499 11.85C3.6499 11.7167 3.6999 11.6 3.7999 11.5L7.2999 8L3.7999 4.5C3.6999 4.4 3.6499 4.28333 3.6499 4.15C3.6499 4.01667 3.6999 3.9 3.7999 3.8C3.8999 3.7 4.01657 3.65 4.1499 3.65C4.28324 3.65 4.3999 3.7 4.4999 3.8L7.9999 7.3L11.4999 3.8C11.5999 3.7 11.7166 3.65 11.8499 3.65C11.9832 3.65 12.0999 3.7 12.1999 3.8C12.2999 3.9 12.3499 4.01667 12.3499 4.15C12.3499 4.28333 12.2999 4.4 12.1999 4.5L8.6999 8L12.1999 11.5C12.2999 11.6 12.3499 11.7167 12.3499 11.85C12.3499 11.9833 12.2999 12.1 12.1999 12.2C12.0999 12.3 11.9832 12.35 11.8499 12.35C11.7166 12.35 11.5999 12.3 11.4999 12.2L7.9999 8.7Z" fill="#DC0A2D"/>
</svg>
