<svg width="153" height="32" viewBox="0 0 153 32" fill="none" xmlns="http://www.w3.org/2000/svg">
<path d="M14.8572 16C14.8572 17.578 13.578 18.8571 12.0001 18.8571C10.4221 18.8571 9.14292 17.578 9.14292 16C9.14292 14.422 10.4221 13.1429 12.0001 13.1429C13.578 13.1429 14.8572 14.422 14.8572 16Z" fill="white"/>
<path fill-rule="evenodd" clip-rule="evenodd" d="M12.0001 28C18.0454 28 23.0467 23.5296 23.8785 17.7143H16.8503C16.1443 19.7118 14.2393 21.1429 12.0001 21.1429C9.76083 21.1429 7.85584 19.7118 7.14984 17.7143H0.121582C0.953404 23.5296 5.95468 28 12.0001 28ZM7.14984 14.2857H0.121582C0.953404 8.47035 5.95468 4 12.0001 4C18.0454 4 23.0467 8.47035 23.8785 14.2857H16.8503C16.1443 12.2882 14.2393 10.8571 12.0001 10.8571C9.76083 10.8571 7.85584 12.2882 7.14984 14.2857ZM14.8572 16C14.8572 17.578 13.578 18.8571 12.0001 18.8571C10.4221 18.8571 9.14292 17.578 9.14292 16C9.14292 14.422 10.4221 13.1429 12.0001 13.1429C13.578 13.1429 14.8572 14.422 14.8572 16Z" fill="white"/>
<path d="M54.328 12.576C54.328 13.552 54.104 14.448 53.656 15.264C53.208 16.064 52.52 16.712 51.592 17.208C50.664 17.704 49.512 17.952 48.136 17.952H45.592V24H41.488V7.152H48.136C49.48 7.152 50.616 7.384 51.544 7.848C52.472 8.312 53.168 8.952 53.632 9.768C54.096 10.584 54.328 11.52 54.328 12.576ZM47.824 14.688C48.608 14.688 49.192 14.504 49.576 14.136C49.96 13.768 50.152 13.248 50.152 12.576C50.152 11.904 49.96 11.384 49.576 11.016C49.192 10.648 48.608 10.464 47.824 10.464H45.592V14.688H47.824ZM62.5606 24.192C61.2486 24.192 60.0646 23.912 59.0086 23.352C57.9686 22.792 57.1446 21.992 56.5366 20.952C55.9446 19.912 55.6486 18.696 55.6486 17.304C55.6486 15.928 55.9526 14.72 56.5606 13.68C57.1686 12.624 58.0006 11.816 59.0566 11.256C60.1126 10.696 61.2966 10.416 62.6086 10.416C63.9206 10.416 65.1046 10.696 66.1606 11.256C67.2166 11.816 68.0486 12.624 68.6566 13.68C69.2646 14.72 69.5686 15.928 69.5686 17.304C69.5686 18.68 69.2566 19.896 68.6326 20.952C68.0246 21.992 67.1846 22.792 66.1126 23.352C65.0566 23.912 63.8726 24.192 62.5606 24.192ZM62.5606 20.64C63.3446 20.64 64.0086 20.352 64.5526 19.776C65.1126 19.2 65.3926 18.376 65.3926 17.304C65.3926 16.232 65.1206 15.408 64.5766 14.832C64.0486 14.256 63.3926 13.968 62.6086 13.968C61.8086 13.968 61.1446 14.256 60.6166 14.832C60.0886 15.392 59.8246 16.216 59.8246 17.304C59.8246 18.376 60.0806 19.2 60.5926 19.776C61.1206 20.352 61.7766 20.64 62.5606 20.64ZM79.9298 24L75.8498 18.384V24H71.7458V6.24H75.8498V16.056L79.9058 10.608H84.9698L79.4018 17.328L85.0178 24H79.9298ZM99.2057 17.088C99.2057 17.472 99.1818 17.872 99.1338 18.288H89.8458C89.9098 19.12 90.1738 19.76 90.6378 20.208C91.1178 20.64 91.7018 20.856 92.3898 20.856C93.4138 20.856 94.1258 20.424 94.5258 19.56H98.8938C98.6698 20.44 98.2618 21.232 97.6698 21.936C97.0938 22.64 96.3658 23.192 95.4858 23.592C94.6058 23.992 93.6218 24.192 92.5338 24.192C91.2218 24.192 90.0538 23.912 89.0298 23.352C88.0058 22.792 87.2058 21.992 86.6298 20.952C86.0538 19.912 85.7658 18.696 85.7658 17.304C85.7658 15.912 86.0458 14.696 86.6058 13.656C87.1818 12.616 87.9818 11.816 89.0058 11.256C90.0298 10.696 91.2058 10.416 92.5338 10.416C93.8298 10.416 94.9818 10.688 95.9898 11.232C96.9978 11.776 97.7818 12.552 98.3418 13.56C98.9178 14.568 99.2057 15.744 99.2057 17.088ZM95.0058 16.008C95.0058 15.304 94.7658 14.744 94.2858 14.328C93.8058 13.912 93.2058 13.704 92.4858 13.704C91.7978 13.704 91.2138 13.904 90.7338 14.304C90.2698 14.704 89.9818 15.272 89.8698 16.008H95.0058ZM95.2938 7.176L89.5098 9.6V6.768L95.2938 3.984V7.176ZM100.555 17.28C100.555 15.904 100.811 14.696 101.323 13.656C101.851 12.616 102.563 11.816 103.459 11.256C104.355 10.696 105.355 10.416 106.459 10.416C107.339 10.416 108.139 10.6 108.859 10.968C109.595 11.336 110.171 11.832 110.587 12.456V6.24H114.691V24H110.587V22.08C110.203 22.72 109.651 23.232 108.931 23.616C108.227 24 107.403 24.192 106.459 24.192C105.355 24.192 104.355 23.912 103.459 23.352C102.563 22.776 101.851 21.968 101.323 20.928C100.811 19.872 100.555 18.656 100.555 17.28ZM110.587 17.304C110.587 16.28 110.299 15.472 109.723 14.88C109.163 14.288 108.475 13.992 107.659 13.992C106.843 13.992 106.147 14.288 105.571 14.88C105.011 15.456 104.731 16.256 104.731 17.28C104.731 18.304 105.011 19.12 105.571 19.728C106.147 20.32 106.843 20.616 107.659 20.616C108.475 20.616 109.163 20.32 109.723 19.728C110.299 19.136 110.587 18.328 110.587 17.304ZM130.284 17.088C130.284 17.472 130.26 17.872 130.212 18.288H120.924C120.988 19.12 121.252 19.76 121.716 20.208C122.196 20.64 122.78 20.856 123.468 20.856C124.492 20.856 125.204 20.424 125.604 19.56H129.972C129.748 20.44 129.34 21.232 128.748 21.936C128.172 22.64 127.444 23.192 126.564 23.592C125.684 23.992 124.7 24.192 123.612 24.192C122.3 24.192 121.132 23.912 120.108 23.352C119.084 22.792 118.284 21.992 117.708 20.952C117.132 19.912 116.844 18.696 116.844 17.304C116.844 15.912 117.124 14.696 117.684 13.656C118.26 12.616 119.06 11.816 120.084 11.256C121.108 10.696 122.284 10.416 123.612 10.416C124.908 10.416 126.06 10.688 127.068 11.232C128.076 11.776 128.86 12.552 129.42 13.56C129.996 14.568 130.284 15.744 130.284 17.088ZM126.084 16.008C126.084 15.304 125.844 14.744 125.364 14.328C124.884 13.912 124.284 13.704 123.564 13.704C122.876 13.704 122.292 13.904 121.812 14.304C121.348 14.704 121.06 15.272 120.948 16.008H126.084ZM140.369 24L137.801 20.28L135.641 24H131.201L135.617 17.16L131.081 10.608H135.689L138.257 14.304L140.417 10.608H144.857L140.369 17.352L144.977 24H140.369Z" fill="white"/>
</svg>
