<svg width="17" height="16" viewBox="0 0 17 16" fill="none" xmlns="http://www.w3.org/2000/svg">
<path d="M4.5 2.33325C4.5 2.06659 4.6 1.83325 4.8 1.63325C5 1.43325 5.23333 1.33325 5.5 1.33325L11.5 1.33325C11.7556 1.33325 11.9861 1.43325 12.1917 1.63325C12.3972 1.83325 12.5 2.06659 12.5 2.33325V13.6666C12.5 13.9333 12.3972 14.1666 12.1917 14.3666C11.9861 14.5666 11.7556 14.6666 11.5 14.6666H5.5C5.23333 14.6666 5 14.5666 4.8 14.3666C4.6 14.1666 4.5 13.9333 4.5 13.6666L4.5 2.33325ZM5.5 2.33325L5.5 13.6666H11.5V11.4999H8.5V10.4999H11.5V8.49992H8.5V7.49992H11.5V5.49992H8.5V4.49992H11.5V2.33325L5.5 2.33325ZM8.5 4.49992V5.49992V4.49992ZM8.5 7.49992V8.49992V7.49992ZM8.5 10.4999V11.4999V10.4999Z" fill="#1D1D1D"/>
</svg>
