<svg width="16" height="16" viewBox="0 0 16 16" fill="none" xmlns="http://www.w3.org/2000/svg">
<path d="M4.78338 13.3333C4.62782 13.3333 4.50004 13.2722 4.40004 13.15C4.30004 13.0278 4.27226 12.8889 4.31671 12.7333L4.88338 10.5H2.96671C2.81115 10.5 2.6806 10.4361 2.57504 10.3083C2.46949 10.1806 2.43893 10.0389 2.48338 9.88333C2.5056 9.77222 2.56115 9.68055 2.65004 9.60833C2.73893 9.53611 2.84449 9.5 2.96671 9.5H5.13338L5.88338 6.5H3.63338C3.47782 6.5 3.34727 6.43611 3.24171 6.30833C3.13615 6.18055 3.1056 6.03889 3.15004 5.88333C3.17226 5.77222 3.22782 5.68055 3.31671 5.60833C3.4056 5.53611 3.51115 5.5 3.63338 5.5H6.13338L6.75004 3.03333C6.77226 2.92222 6.82504 2.83333 6.90838 2.76666C6.99171 2.7 7.08893 2.66666 7.20004 2.66666C7.3556 2.66666 7.4806 2.72778 7.57504 2.85C7.66949 2.97222 7.70004 3.11111 7.66671 3.26666L7.11671 5.5H10.1334L10.75 3.03333C10.7723 2.92222 10.825 2.83333 10.9084 2.76666C10.9917 2.7 11.0889 2.66666 11.2 2.66666C11.3556 2.66666 11.4806 2.72778 11.575 2.85C11.6695 2.97222 11.7 3.11111 11.6667 3.26666L11.1167 5.5H13.0334C13.1889 5.5 13.3195 5.56389 13.425 5.69166C13.5306 5.81944 13.5612 5.96111 13.5167 6.11666C13.4945 6.22778 13.4389 6.31944 13.35 6.39166C13.2612 6.46389 13.1556 6.5 13.0334 6.5H10.8667L10.1167 9.5H12.3667C12.5223 9.5 12.6528 9.56389 12.7584 9.69166C12.8639 9.81944 12.8945 9.96111 12.85 10.1167C12.8278 10.2278 12.7723 10.3194 12.6834 10.3917C12.5945 10.4639 12.4889 10.5 12.3667 10.5H9.86671L9.25004 12.9667C9.22782 13.0556 9.1806 13.1389 9.10838 13.2167C9.03615 13.2944 8.92782 13.3333 8.78338 13.3333C8.62782 13.3333 8.50004 13.2722 8.40004 13.15C8.30004 13.0278 8.27226 12.8889 8.31671 12.7333L8.88338 10.5H5.86671L5.25004 12.9667C5.22782 13.0556 5.1806 13.1389 5.10838 13.2167C5.03615 13.2944 4.92782 13.3333 4.78338 13.3333ZM6.11671 9.5H9.13338L9.88338 6.5H6.86671L6.11671 9.5Z" fill="#DC0A2D"/>
</svg>
