<svg width="17" height="16" viewBox="0 0 17 16" fill="none" xmlns="http://www.w3.org/2000/svg">
<path d="M4.28333 13.0001H13.05L12 5.66675H5.33333L4.28333 13.0001ZM8.66667 4.66675C8.95556 4.66675 9.19444 4.56953 9.38333 4.37508C9.57222 4.18064 9.66667 3.94453 9.66667 3.66675C9.66667 3.37786 9.57222 3.13897 9.38333 2.95008C9.19444 2.76119 8.95556 2.66675 8.66667 2.66675C8.38889 2.66675 8.15278 2.76119 7.95833 2.95008C7.76389 3.13897 7.66667 3.37786 7.66667 3.66675C7.66667 3.94453 7.76389 4.18064 7.95833 4.37508C8.15278 4.56953 8.38889 4.66675 8.66667 4.66675ZM10.4 4.66675H12C12.2556 4.66675 12.4778 4.7473 12.6667 4.90841C12.8556 5.06953 12.9667 5.27786 13 5.53341L14.0333 12.8667C14.0778 13.1667 14.0028 13.4306 13.8083 13.6584C13.6139 13.8862 13.3611 14.0001 13.05 14.0001H4.28333C3.97222 14.0001 3.71945 13.8862 3.525 13.6584C3.33056 13.4306 3.25556 13.1667 3.3 12.8667L4.33333 5.53341C4.36667 5.27786 4.47778 5.06953 4.66667 4.90841C4.85556 4.7473 5.07778 4.66675 5.33333 4.66675H6.93333C6.84444 4.51119 6.77778 4.35286 6.73333 4.19175C6.68889 4.03064 6.66667 3.85564 6.66667 3.66675C6.66667 3.11119 6.86111 2.63897 7.25 2.25008C7.63889 1.86119 8.11111 1.66675 8.66667 1.66675C9.22222 1.66675 9.69444 1.86119 10.0833 2.25008C10.4722 2.63897 10.6667 3.11119 10.6667 3.66675C10.6667 3.85564 10.6444 4.03064 10.6 4.19175C10.5556 4.35286 10.4889 4.51119 10.4 4.66675ZM4.28333 13.0001H13.05H4.28333Z" fill="#1D1D1D"/>
</svg>
