<svg width="117" height="42" viewBox="0 0 117 42" fill="none" xmlns="http://www.w3.org/2000/svg">
<path d="M26.416 2.12V25.702C26.416 27.418 26.1733 29.056 25.688 30.616C25.2027 32.176 24.4313 33.5627 23.374 34.776C22.334 35.972 20.982 36.9253 19.318 37.636C17.6713 38.3293 15.678 38.676 13.338 38.676C11.362 38.676 9.53333 38.39 7.852 37.818C6.17067 37.246 4.59333 36.4313 3.12 35.374L5.59 31.526C7.01133 32.462 8.32 33.0947 9.516 33.424C10.7293 33.7533 11.9253 33.918 13.104 33.918C15.3573 33.918 17.134 33.1987 18.434 31.76C19.7513 30.3213 20.41 28.2587 20.41 25.572V6.748H9.62V2.12H26.416ZM59.7017 27.86C59.7017 29.9747 59.1557 31.8553 58.0637 33.502C56.989 35.1313 55.429 36.4053 53.3837 37.324C51.3557 38.2427 48.903 38.702 46.0257 38.702C43.1137 38.702 40.557 38.2687 38.3557 37.402C36.1717 36.518 34.3257 35.348 32.8177 33.892L36.1197 30.2C37.4024 31.3613 38.8497 32.28 40.4617 32.956C42.0737 33.6147 43.9197 33.944 45.9997 33.944C47.3517 33.944 48.591 33.736 49.7177 33.32C50.8444 32.8867 51.7457 32.2453 52.4217 31.396C53.0977 30.5293 53.4357 29.446 53.4357 28.146C53.4357 27.0887 53.219 26.196 52.7857 25.468C52.3524 24.74 51.5984 24.0813 50.5237 23.492C49.4664 22.9027 47.9844 22.3307 46.0777 21.776C43.547 21.0133 41.4237 20.164 39.7077 19.228C37.9917 18.292 36.6917 17.174 35.8077 15.874C34.941 14.5567 34.5077 12.962 34.5077 11.09C34.5077 9.14866 35.0364 7.45 36.0937 5.994C37.1684 4.538 38.633 3.41133 40.4877 2.614C42.3597 1.79933 44.4744 1.392 46.8317 1.392C49.4317 1.392 51.7024 1.76466 53.6437 2.51C55.585 3.25533 57.3184 4.32133 58.8437 5.708L55.6717 9.296C54.4064 8.18666 53.0457 7.38066 51.5897 6.878C50.151 6.37533 48.6864 6.124 47.1957 6.124C45.9824 6.124 44.8817 6.29733 43.8937 6.644C42.9057 6.99066 42.1257 7.502 41.5537 8.178C40.9817 8.854 40.6957 9.712 40.6957 10.752C40.6957 11.6707 40.947 12.4593 41.4497 13.118C41.9697 13.7767 42.8364 14.392 44.0497 14.964C45.2804 15.5187 46.9617 16.1167 49.0937 16.758C51.1044 17.3473 52.907 18.0753 54.5017 18.942C56.1137 19.8087 57.379 20.944 58.2977 22.348C59.2337 23.752 59.7017 25.5893 59.7017 27.86Z" fill="white"/>
<line x1="69.5" y1="2.5" x2="69.5" y2="39.5" stroke="white"/>
<path d="M81.951 7.361V13.801C81.951 14.2023 81.8973 14.6037 81.79 15.005C81.6873 15.4017 81.51 15.7633 81.258 16.09C81.0107 16.412 80.6747 16.671 80.25 16.867C79.8253 17.063 79.2957 17.161 78.661 17.161C78.1897 17.161 77.7253 17.0863 77.268 16.937C76.8153 16.7877 76.3977 16.5707 76.015 16.286L76.554 15.481C76.974 15.7423 77.3567 15.9197 77.702 16.013C78.0473 16.1017 78.3623 16.146 78.647 16.146C79.319 16.146 79.8347 15.9313 80.194 15.502C80.558 15.0727 80.74 14.4823 80.74 13.731V8.355H77.884V7.361H81.951ZM87.6085 9.475C88.3039 9.475 88.8849 9.63367 89.3515 9.951C89.8229 10.2637 90.1752 10.707 90.4085 11.281C90.6465 11.855 90.7655 12.5317 90.7655 13.311C90.7655 14.0623 90.6442 14.7273 90.4015 15.306C90.1589 15.8847 89.8019 16.3397 89.3305 16.671C88.8639 16.9977 88.2852 17.161 87.5945 17.161C86.9039 17.161 86.3229 17.0023 85.8515 16.685C85.3802 16.3677 85.0232 15.922 84.7805 15.348C84.5425 14.7693 84.4235 14.095 84.4235 13.325C84.4235 12.5643 84.5449 11.8947 84.7875 11.316C85.0302 10.7373 85.3872 10.287 85.8585 9.965C86.3345 9.63833 86.9179 9.475 87.6085 9.475ZM87.6085 10.434C86.9739 10.434 86.4932 10.6697 86.1665 11.141C85.8445 11.6077 85.6835 12.3357 85.6835 13.325C85.6835 14.2957 85.8422 15.0167 86.1595 15.488C86.4815 15.9593 86.9599 16.195 87.5945 16.195C88.2292 16.195 88.7052 15.9593 89.0225 15.488C89.3445 15.0167 89.5055 14.291 89.5055 13.311C89.5055 12.331 89.3469 11.6077 89.0295 11.141C88.7122 10.6697 88.2385 10.434 87.6085 10.434ZM98.4741 15.39C98.4741 15.684 98.5231 15.8987 98.6211 16.034C98.7191 16.1693 98.8707 16.2697 99.0761 16.335L98.7891 17.161C98.4717 17.119 98.1941 17.0187 97.9561 16.86C97.7181 16.6967 97.5454 16.4517 97.4381 16.125C97.1721 16.4657 96.8407 16.7247 96.4441 16.902C96.0474 17.0747 95.6087 17.161 95.1281 17.161C94.3907 17.161 93.8097 16.9533 93.3851 16.538C92.9604 16.1227 92.7481 15.572 92.7481 14.886C92.7481 14.1253 93.0444 13.542 93.6371 13.136C94.2297 12.73 95.0861 12.527 96.2061 12.527H97.2911V11.911C97.2911 11.379 97.1347 11.0033 96.8221 10.784C96.5141 10.56 96.0847 10.448 95.5341 10.448C95.2914 10.448 95.0067 10.4783 94.6801 10.539C94.3534 10.595 93.9987 10.6907 93.6161 10.826L93.3081 9.937C93.7607 9.769 94.1854 9.65 94.5821 9.58C94.9787 9.51 95.3567 9.475 95.7161 9.475C96.6354 9.475 97.3237 9.68967 97.7811 10.119C98.2431 10.5437 98.4741 11.1223 98.4741 11.855V15.39ZM95.4291 16.265C95.7931 16.265 96.1407 16.174 96.4721 15.992C96.8034 15.8053 97.0764 15.5487 97.2911 15.222V13.325H96.2271C95.4151 13.325 94.8411 13.465 94.5051 13.745C94.1737 14.025 94.0081 14.4007 94.0081 14.872C94.0081 15.3293 94.1247 15.677 94.3581 15.915C94.5961 16.1483 94.9531 16.265 95.4291 16.265ZM96.6961 7.781C96.4487 7.781 96.2341 7.725 96.0521 7.613C95.8747 7.501 95.7091 7.389 95.5551 7.277C95.4011 7.16033 95.2377 7.102 95.0651 7.102C94.9064 7.102 94.7711 7.158 94.6591 7.27C94.5471 7.37733 94.4351 7.53833 94.3231 7.753L93.5741 7.375C93.7374 7.04367 93.9427 6.766 94.1901 6.542C94.4374 6.31333 94.7314 6.199 95.0721 6.199C95.3334 6.199 95.5504 6.255 95.7231 6.367C95.9004 6.479 96.0637 6.591 96.2131 6.703C96.3624 6.815 96.5234 6.871 96.6961 6.871C96.8361 6.871 96.9621 6.822 97.0741 6.724C97.1907 6.62133 97.3121 6.465 97.4381 6.255L98.1801 6.633C97.9981 7.02033 97.7811 7.30967 97.5291 7.501C97.2771 7.68767 96.9994 7.781 96.6961 7.781ZM104.398 9.475C105.093 9.475 105.674 9.63367 106.141 9.951C106.612 10.2637 106.964 10.707 107.198 11.281C107.436 11.855 107.555 12.5317 107.555 13.311C107.555 14.0623 107.433 14.7273 107.191 15.306C106.948 15.8847 106.591 16.3397 106.12 16.671C105.653 16.9977 105.074 17.161 104.384 17.161C103.693 17.161 103.112 17.0023 102.641 16.685C102.169 16.3677 101.812 15.922 101.57 15.348C101.332 14.7693 101.213 14.095 101.213 13.325C101.213 12.5643 101.334 11.8947 101.577 11.316C101.819 10.7373 102.176 10.287 102.648 9.965C103.124 9.63833 103.707 9.475 104.398 9.475ZM104.398 10.434C103.763 10.434 103.282 10.6697 102.956 11.141C102.634 11.6077 102.473 12.3357 102.473 13.325C102.473 14.2957 102.631 15.0167 102.949 15.488C103.271 15.9593 103.749 16.195 104.384 16.195C105.018 16.195 105.494 15.9593 105.812 15.488C106.134 15.0167 106.295 14.291 106.295 13.311C106.295 12.331 106.136 11.6077 105.819 11.141C105.501 10.6697 105.028 10.434 104.398 10.434ZM82.511 32.333C82.511 32.8837 82.3733 33.3737 82.098 33.803C81.8227 34.2277 81.4237 34.5613 80.901 34.804C80.3783 35.042 79.7413 35.161 78.99 35.161C78.2853 35.161 77.646 35.0537 77.072 34.839C76.5027 34.6243 76.015 34.321 75.609 33.929L76.33 33.117C76.666 33.4297 77.051 33.6793 77.485 33.866C77.919 34.048 78.4277 34.139 79.011 34.139C79.403 34.139 79.7693 34.076 80.11 33.95C80.4507 33.8193 80.726 33.6233 80.936 33.362C81.146 33.096 81.251 32.76 81.251 32.354C81.251 32.0413 81.1903 31.7753 81.069 31.556C80.9477 31.3367 80.733 31.143 80.425 30.975C80.117 30.8023 79.6877 30.6343 79.137 30.471C78.5023 30.2843 77.9517 30.0743 77.485 29.841C77.023 29.603 76.6637 29.3113 76.407 28.966C76.155 28.6207 76.029 28.1937 76.029 27.685C76.029 27.2043 76.162 26.7773 76.428 26.404C76.694 26.0307 77.0603 25.739 77.527 25.529C77.9983 25.3143 78.5397 25.207 79.151 25.207C79.8183 25.207 80.397 25.3027 80.887 25.494C81.3817 25.6807 81.8297 25.9513 82.231 26.306L81.517 27.097C81.1717 26.789 80.8007 26.5673 80.404 26.432C80.0073 26.292 79.6037 26.222 79.193 26.222C78.843 26.222 78.521 26.2757 78.227 26.383C77.9377 26.4857 77.7043 26.642 77.527 26.852C77.3543 27.0573 77.268 27.321 77.268 27.643C77.268 27.9183 77.3427 28.1563 77.492 28.357C77.6413 28.5577 77.8933 28.742 78.248 28.91C78.6027 29.0733 79.0857 29.246 79.697 29.428C80.1963 29.5727 80.6583 29.7547 81.083 29.974C81.5123 30.1887 81.8577 30.4827 82.119 30.856C82.3803 31.2247 82.511 31.717 82.511 32.333ZM88.5325 27.629V34.069H90.6115V35H85.0815V34.069H87.3565V28.56H85.1515V27.629H88.5325ZM87.5945 24.178C87.8559 24.178 88.0635 24.2573 88.2175 24.416C88.3762 24.5747 88.4555 24.7683 88.4555 24.997C88.4555 25.235 88.3762 25.4357 88.2175 25.599C88.0635 25.7577 87.8559 25.837 87.5945 25.837C87.3472 25.837 87.1442 25.7577 86.9855 25.599C86.8269 25.4357 86.7475 25.235 86.7475 24.997C86.7475 24.7683 86.8269 24.5747 86.9855 24.416C87.1442 24.2573 87.3472 24.178 87.5945 24.178ZM96.0661 24.661V33.18C96.0661 33.544 96.1781 33.803 96.4021 33.957C96.6307 34.1063 96.9247 34.181 97.2841 34.181C97.5081 34.181 97.7204 34.1577 97.9211 34.111C98.1217 34.0643 98.3224 34.0013 98.5231 33.922L98.8381 34.783C98.6374 34.881 98.3877 34.9673 98.0891 35.042C97.7951 35.1213 97.4614 35.161 97.0881 35.161C96.4347 35.161 95.9051 34.9813 95.4991 34.622C95.0931 34.258 94.8901 33.7563 94.8901 33.117V25.592H92.6291V24.661H96.0661ZM107.737 27.629L105.056 35H103.691L101.031 27.629H102.277L104.412 33.929L106.519 27.629H107.737ZM115.263 33.39C115.263 33.684 115.312 33.8987 115.41 34.034C115.508 34.1693 115.66 34.2697 115.865 34.335L115.578 35.161C115.261 35.119 114.983 35.0187 114.745 34.86C114.507 34.6967 114.334 34.4517 114.227 34.125C113.961 34.4657 113.63 34.7247 113.233 34.902C112.836 35.0747 112.398 35.161 111.917 35.161C111.18 35.161 110.599 34.9533 110.174 34.538C109.749 34.1227 109.537 33.572 109.537 32.886C109.537 32.1253 109.833 31.542 110.426 31.136C111.019 30.73 111.875 30.527 112.995 30.527H114.08V29.911C114.08 29.379 113.924 29.0033 113.611 28.784C113.303 28.56 112.874 28.448 112.323 28.448C112.08 28.448 111.796 28.4783 111.469 28.539C111.142 28.595 110.788 28.6907 110.405 28.826L110.097 27.937C110.55 27.769 110.974 27.65 111.371 27.58C111.768 27.51 112.146 27.475 112.505 27.475C113.424 27.475 114.113 27.6897 114.57 28.119C115.032 28.5437 115.263 29.1223 115.263 29.855V33.39ZM112.218 34.265C112.582 34.265 112.93 34.174 113.261 33.992C113.592 33.8053 113.865 33.5487 114.08 33.222V31.325H113.016C112.204 31.325 111.63 31.465 111.294 31.745C110.963 32.025 110.797 32.4007 110.797 32.872C110.797 33.3293 110.914 33.677 111.147 33.915C111.385 34.1483 111.742 34.265 112.218 34.265Z" fill="white"/>
</svg>
