<svg width="158" height="63" viewBox="0 0 158 63" fill="none" xmlns="http://www.w3.org/2000/svg">
<path fill-rule="evenodd" clip-rule="evenodd" d="M82.9613 52.7803V37.2688L66.2294 30.2838L75.0112 21.0924L63.5019 10.0898L60.2378 16.8244L60.363 10.35L45.7773 15.3695L46.1529 23.8094L48.6301 23.1157L51.2056 52.8959L61.4898 51.2677L61.4719 41.3249L82.9613 52.7803Z" fill="#0B0000"/>
<path fill-rule="evenodd" clip-rule="evenodd" d="M48.5234 17.5331L57.3857 14.6909L57.9312 24.5277L64.4594 14.6523L70.8356 21.1942L61.9197 31.32L80.2702 39.1529V48.1611L58.9507 36.6672L58.9865 48.7103L53.4688 49.5196L51.1168 19.3925L48.6308 20.0862L48.5234 17.5331Z" fill="white"/>
<path fill-rule="evenodd" clip-rule="evenodd" d="M115.718 11.5703H106.06L105.783 13.2756H95.6236L90.875 44.5588L102.465 46.5243L103.1 42.0346L106.131 48.0562L107.974 44.212L108.653 50.5226L121.79 53.0179L115.718 11.5703Z" fill="#0B0000"/>
<path fill-rule="evenodd" clip-rule="evenodd" d="M108.601 14.4609H113.52L118.501 49.3089L111.239 48.1143L109.308 34.3273L106.58 41.9289L102.484 32.4293H102.44L100.821 43.4415L94.0156 42.1601L98.0667 16.0699H104.953L106.67 26.1861L108.601 14.4609Z" fill="white"/>
<path fill-rule="evenodd" clip-rule="evenodd" d="M128.016 14.4219L142.548 17.8614L143.63 23.6421L144.802 18.4298L157.169 21.6574L145.294 60.205L136.181 57.1124L136.109 53.2489L127.363 51.929L130.314 23.6421L128.123 23.1122L128.016 14.4219Z" fill="#0B0000"/>
<path fill-rule="evenodd" clip-rule="evenodd" d="M130.603 18.0352L140.073 20.0873L143.266 36.3696L146.53 21.7733L153.738 23.4979L143.588 56.6213L138.544 54.9931L138.106 34.9726L135.566 50.4167L130.066 49.4822L132.535 21.4361L130.46 20.8388L130.603 18.0352Z" fill="white"/>
<path fill-rule="evenodd" clip-rule="evenodd" d="M126.62 47.4781C123.481 48.7499 120.146 48.6053 117.463 47.0638C114.977 45.6476 113.242 43.1908 112.571 40.1559C111.23 34.1054 114.941 27.1975 120.843 24.76C124.018 23.4689 127.38 23.6231 130.081 25.1742C132.54 26.5809 134.257 28.9799 134.91 31.928C136.278 38.0652 132.567 45.0406 126.62 47.4781Z" fill="#0B0000"/>
<path fill-rule="evenodd" clip-rule="evenodd" d="M132.61 32.4888C131.537 27.633 126.726 25.1955 121.789 27.1995C117.005 29.1745 113.866 34.7529 114.948 39.6087C116.057 44.6186 120.824 47.0465 125.76 45.0426C130.58 43.0771 133.719 37.4602 132.61 32.4888Z" fill="white"/>
<path fill-rule="evenodd" clip-rule="evenodd" d="M129.026 33.3433C128.927 36.0217 126.763 38.045 124.116 37.9294C121.514 37.8137 119.511 35.6171 119.609 32.9387C119.707 30.4241 121.863 28.4008 124.51 28.5164C127.121 28.6321 129.124 30.8287 129.026 33.3433Z" fill="#0B0000"/>
<path fill-rule="evenodd" clip-rule="evenodd" d="M125.662 28.6317C124.079 28.5642 122.756 29.7396 122.693 31.2523C122.639 32.7649 123.874 34.0559 125.456 34.1233C127.039 34.1908 128.363 33.0154 128.425 31.5028C128.479 29.9901 127.245 28.6991 125.662 28.6317Z" fill="white"/>
<path fill-rule="evenodd" clip-rule="evenodd" d="M46.5018 50.8535C43.2914 52.318 39.8126 52.318 36.9599 50.8439C34.3218 49.4758 32.417 47.0094 31.6032 43.8782C29.9756 37.6446 33.5617 30.2935 39.607 27.4899C42.8532 26.0158 46.3587 26.0158 49.2294 27.5091C51.8406 28.858 53.7186 31.2762 54.5145 34.3111C56.1779 40.6313 52.5829 48.0595 46.5018 50.8535Z" fill="#0B0000"/>
<path fill-rule="evenodd" clip-rule="evenodd" d="M52.2157 34.6942C50.8922 29.6457 45.759 27.3141 40.6617 29.6457C35.7163 31.9387 32.649 37.9314 33.9725 42.9798C35.3318 48.1921 40.4291 50.514 45.5265 48.1921C50.5076 45.8991 53.575 39.8583 52.2157 34.6942Z" fill="white"/>
<path fill-rule="evenodd" clip-rule="evenodd" d="M48.7644 35.6576C48.7644 38.336 46.6807 40.446 44.0337 40.446C41.4313 40.446 39.3477 38.336 39.3477 35.6576C39.3477 33.143 41.4313 31.0234 44.0784 31.0234C46.6807 31.0234 48.7644 33.1334 48.7644 35.6576Z" fill="#0B0000"/>
<path fill-rule="evenodd" clip-rule="evenodd" d="M45.2339 31.0898C43.651 31.0898 42.3633 32.3231 42.3633 33.8357C42.3633 35.3483 43.6421 36.5815 45.2339 36.5815C46.8168 36.5815 48.1045 35.3483 48.1045 33.8357C48.1045 32.3231 46.8168 31.0898 45.2339 31.0898Z" fill="white"/>
<path fill-rule="evenodd" clip-rule="evenodd" d="M28.7867 41.5445C35.6905 36.0817 38.9815 27.825 36.4864 21.63C35.3954 18.9227 33.4817 16.6875 31.1387 15.2808C29.4932 14.1054 27.5347 13.3636 25.4779 13.1131C20.4342 12.1593 14.3799 13.142 8.42407 15.8686C6.2331 16.8705 4.18521 18.0267 2.343 19.2888L0 20.8785L1.40401 23.4413L5.76807 31.3897C5.76807 31.3897 7.10949 33.8369 7.11843 33.8273L9.48826 32.5844L9.81914 32.411L20.6667 58.5108L21.713 61.0158L24.1454 60.1776L30.0208 58.1544L32.5963 57.268L31.9167 54.4547L28.7867 41.5445Z" fill="black"/>
<path fill-rule="evenodd" clip-rule="evenodd" d="M33.8634 22.8519C32.996 20.7034 31.5026 19.0173 29.553 17.8323C28.1401 16.8207 26.5036 16.3197 24.9743 16.1366C20.6282 15.3177 15.2178 16.0885 9.52127 18.6898C7.49126 19.6147 5.5954 20.6745 3.85156 21.8692L8.21562 29.8176C9.33347 29.2299 10.5407 28.6037 11.1936 28.2279L23.2573 57.2374L29.1327 55.2142L25.5109 40.2036C32.4594 35.6079 35.965 28.0641 33.8634 22.8519Z" fill="white"/>
<path fill-rule="evenodd" clip-rule="evenodd" d="M95.5824 30.4857L91.4508 26.4777L93.4808 24.1558L95.3051 22.0651L93.6239 19.8396C90.3419 15.4848 85.0925 13.7409 79.5838 15.1765C71.9198 17.1612 67.6005 24.2714 69.3085 32.0657C69.9971 35.2066 71.8215 37.8946 74.4596 39.6385C77.6074 41.7292 81.5691 42.2976 85.6022 41.2474C89.859 40.1395 92.989 38.28 95.7344 35.2259L97.9343 32.7787L95.5824 30.4857Z" fill="#0B0000"/>
<path fill-rule="evenodd" clip-rule="evenodd" d="M89.2312 28.5854C88.1938 29.9053 87.0044 31.1096 84.894 31.6588C84.1875 31.8419 83.2306 32.0153 82.6225 31.8997L91.5027 21.716C88.9987 18.3921 84.885 16.8506 80.2258 18.0645C74.4309 19.5675 70.514 24.7701 71.9627 31.3987C73.1253 36.7265 78.5982 39.9926 84.9476 38.3451C88.793 37.3432 91.4669 35.7438 93.8635 33.0751L89.2312 28.5854Z" fill="white"/>
<path fill-rule="evenodd" clip-rule="evenodd" d="M75.3594 13.4979L86.2338 0L92.2523 9.68267L78.5072 17.6408L75.3594 13.4979Z" fill="#0B0000"/>
<path fill-rule="evenodd" clip-rule="evenodd" d="M85.7687 4.29688L88.9524 8.95997L79.8576 13.8158L79.2227 12.7849L85.7687 4.29688Z" fill="white"/>
<path fill-rule="evenodd" clip-rule="evenodd" d="M79.0298 28.74C78.377 27.4586 78.5022 25.8111 79.477 24.6646C80.416 23.5567 81.8468 23.2387 83.072 23.7493L79.0298 28.74ZM79.477 24.6646C78.5112 25.8111 78.377 27.4586 79.0298 28.74L83.072 23.7493C81.8468 23.2387 80.407 23.5567 79.477 24.6646ZM85.3166 22.9979C83.2419 20.965 80.0404 21.1288 78.1535 23.364C76.2665 25.5992 76.4186 29.0483 78.4933 31.0812C78.6632 31.2546 78.851 31.3991 79.0388 31.534L85.6832 23.3832C85.558 23.2484 85.4418 23.1231 85.3166 22.9979ZM79.0298 28.74C78.377 27.4586 78.5022 25.8111 79.477 24.6646C80.416 23.5567 81.8468 23.2387 83.072 23.7493L79.0298 28.74Z" fill="black"/>
<path fill-rule="evenodd" clip-rule="evenodd" d="M29.2978 27.8132C28.7791 24.7398 25.0678 23.0153 21.3477 25.1637L22.2777 28.69L23.7443 33.8926L24.415 36.2627C27.2052 34.3647 30.0132 32.0717 29.2978 27.8132ZM25.6044 32.5149C25.202 31.089 24.3345 28.0156 24.3345 28.0156C24.3435 28.0348 24.1557 27.3508 23.9589 26.5897C24.7459 26.4355 25.4971 26.5126 26.1231 26.8402C26.4719 27.0232 27.071 27.4375 27.1962 28.2275C27.4913 29.9906 26.9279 31.2527 25.6044 32.5149Z" fill="black"/>
<path fill-rule="evenodd" clip-rule="evenodd" d="M30.8906 62.8945C30.8996 62.9234 30.9085 62.9427 30.9174 62.9716C30.9174 62.9812 30.9264 62.9909 30.9264 63.0005C30.9175 62.962 30.8996 62.9331 30.8906 62.8945Z" fill="black"/>
<path fill-rule="evenodd" clip-rule="evenodd" d="M147.914 56.7109H150.588V57.1349H149.479V60.2661H149.023V57.1349H147.914V56.7109Z" fill="black"/>
<path fill-rule="evenodd" clip-rule="evenodd" d="M150.98 60.2661V56.7109H151.624L152.572 59.7169L153.511 56.7109H154.146V60.2661H153.726V58.1657C153.726 58.0887 153.726 57.9731 153.735 57.8093C153.735 57.6455 153.735 57.4624 153.735 57.2697L152.796 60.2661H152.358L151.41 57.2697V57.3757C151.41 57.4624 151.41 57.5973 151.419 57.7707C151.419 57.9442 151.428 58.079 151.428 58.1657V60.2661H150.98Z" fill="black"/>
</svg>
