<svg width="24" height="24" viewBox="0 0 24 24" fill="none" xmlns="http://www.w3.org/2000/svg">
  <path
    d="M12 0C5.37321 0 0 5.37321 0 12C0 18.6268 5.37321 24 12 24C18.6268 24 24 18.6268 24 12C24 5.37321 18.6268 0 12 0ZM12 21.9643C6.49821 21.9643 2.03571 17.5018 2.03571 12C2.03571 6.49821 6.49821 2.03571 12 2.03571C17.5018 2.03571 21.9643 6.49821 21.9643 12C21.9643 17.5018 17.5018 21.9643 12 21.9643Z"
    fill="white" />
  <path
    d="M14.9889 6.76791C14.1853 6.06345 13.1246 5.67773 11.9996 5.67773C10.8746 5.67773 9.81387 6.06613 9.0103 6.76791C8.17458 7.49916 7.71387 8.4822 7.71387 9.53488V9.73845C7.71387 9.85631 7.8103 9.95273 7.92815 9.95273H9.21387C9.33172 9.95273 9.42815 9.85631 9.42815 9.73845V9.53488C9.42815 8.35363 10.5826 7.39202 11.9996 7.39202C13.4165 7.39202 14.571 8.35363 14.571 9.53488C14.571 10.3679 13.9817 11.1313 13.0683 11.4822C12.5005 11.6992 12.0183 12.0795 11.6728 12.5777C11.3219 13.0867 11.1398 13.6974 11.1398 14.3161V14.892C11.1398 15.0099 11.2362 15.1063 11.354 15.1063H12.6398C12.7576 15.1063 12.854 15.0099 12.854 14.892V14.284C12.8554 14.024 12.9351 13.7704 13.0828 13.5563C13.2304 13.3423 13.4391 13.1777 13.6817 13.084C15.2621 12.4759 16.2826 11.0831 16.2826 9.53488C16.2853 8.4822 15.8246 7.49916 14.9889 6.76791ZM10.9282 17.892C10.9282 18.1762 11.041 18.4487 11.242 18.6496C11.4429 18.8506 11.7154 18.9635 11.9996 18.9635C12.2837 18.9635 12.5563 18.8506 12.7572 18.6496C12.9581 18.4487 13.071 18.1762 13.071 17.892C13.071 17.6079 12.9581 17.3353 12.7572 17.1344C12.5563 16.9335 12.2837 16.8206 11.9996 16.8206C11.7154 16.8206 11.4429 16.9335 11.242 17.1344C11.041 17.3353 10.9282 17.6079 10.9282 17.892Z"
    fill="white" />
</svg>