<svg width="82" height="94" viewBox="0 0 82 94" fill="none" xmlns="http://www.w3.org/2000/svg">
<path fill-rule="evenodd" clip-rule="evenodd" d="M56.8264 0.09252C56.8949 -0.00509974 57.0293 -0.0288239 57.1269 0.0395302L63.8013 4.71301C63.899 4.78136 63.9227 4.9159 63.8544 5.01352L54.5647 18.2804C59.0809 19.7232 62.1578 21.2796 62.1578 21.2796C62.1578 21.2796 54.637 34.2159 41.8811 34.2159C29.1252 34.2159 20.061 22.159 20.061 22.159C20.061 22.159 23.275 20.1079 28.0393 18.3487L17.8498 6.20552C17.7732 6.11422 17.7852 5.97812 17.8764 5.90152L24.1181 0.664115C24.2095 0.587515 24.3455 0.599421 24.4221 0.690713L37.3236 16.0661C38.4283 15.9412 39.5537 15.8713 40.6894 15.8713C42.3218 15.8713 43.9521 15.9954 45.5436 16.206L56.8264 0.09252ZM59.3501 34.8286C62.7541 32.3974 67.905 26.0521 67.905 26.0521C67.905 26.0521 81.0621 36.4784 81.0621 58.586C81.0621 80.6934 58.3155 93.999 58.3155 93.999C58.3155 93.999 47.4477 83.0236 44.7797 69.1107C42.1119 55.1978 48.7262 39.7491 48.7262 39.7491C48.7262 39.7491 55.9459 37.2597 59.3501 34.8286V34.8286ZM22.6895 34.8286C19.2855 32.3974 14.1346 26.0521 14.1346 26.0521C14.1346 26.0521 0.977539 36.4784 0.977539 58.586C0.977539 80.6934 23.7241 93.999 23.7241 93.999C23.7241 93.999 34.5919 83.0236 37.2599 69.1107C39.9277 55.1978 33.3134 39.7491 33.3134 39.7491C33.3134 39.7491 26.0937 37.2597 22.6895 34.8286V34.8286Z" fill="url(#paint0_linear_1406_3251)"/>
<defs>
<linearGradient id="paint0_linear_1406_3251" x1="-7.03805" y1="7.04924" x2="67.588" y2="106.616" gradientUnits="userSpaceOnUse">
<stop stop-color="white"/>
<stop offset="1" stop-color="white" stop-opacity="0"/>
</linearGradient>
</defs>
</svg>
