<svg width="94" height="94" viewBox="0 0 94 94" fill="none" xmlns="http://www.w3.org/2000/svg">
<path fill-rule="evenodd" clip-rule="evenodd" d="M42.1141 83.1409C43.9 83.4143 45.7289 83.556 47.5913 83.556C67.4198 83.556 83.494 67.4818 83.494 47.6534C83.494 27.8247 67.4198 11.7505 47.5913 11.7505C46.261 11.7505 44.9474 11.8228 43.6547 11.9638C53.4907 19.4157 59.994 32.3244 59.994 47.0005C59.994 62.4297 52.8061 75.9055 42.1141 83.1409ZM46.9384 94.0005C72.8958 94.0005 93.9384 72.9579 93.9384 47.0005C93.9384 21.0431 72.8958 0.000488281 46.9384 0.000488281C20.981 0.000488281 -0.0615234 21.0431 -0.0615234 47.0005C-0.0615234 72.9579 20.981 94.0005 46.9384 94.0005Z" fill="url(#paint0_linear_1406_1090)"/>
<defs>
<linearGradient id="paint0_linear_1406_1090" x1="-9.46989" y1="7.04935" x2="61.066" y2="117.51" gradientUnits="userSpaceOnUse">
<stop stop-color="white"/>
<stop offset="1" stop-color="white" stop-opacity="0"/>
</linearGradient>
</defs>
</svg>
