<svg width="84" height="94" viewBox="0 0 84 94" fill="none" xmlns="http://www.w3.org/2000/svg">
<path fill-rule="evenodd" clip-rule="evenodd" d="M46.5342 46.7948C47.1712 46.4063 47.7117 45.5923 48.1476 44.6875C53.884 47.032 57.9151 52.5721 57.9151 59.033C57.9151 67.616 50.8009 74.574 42.0251 74.574C38.4226 74.574 35.1001 73.4014 32.4349 71.4254C31.5606 71.0114 30.8413 70.6137 30.2527 70.2882C29.3397 69.7835 28.741 69.4525 28.3661 69.5043C27.2702 69.6554 27.5884 70.6636 27.8775 71.5796C28.0738 72.2018 28.2569 72.7814 27.9736 73.0204C27.6772 73.2709 26.7174 72.3557 25.5958 71.2864C24.0691 69.8307 22.2427 68.0893 21.3814 68.6124C20.7005 69.026 21.3616 70.1479 22.1709 71.5212L22.2309 71.6231C22.5728 72.2036 22.969 72.7948 23.3305 73.3342C24.0654 74.4304 24.6573 75.3139 24.3612 75.4633C24.0032 75.644 21.5089 73.9604 19.4069 71.6231C18.5956 70.7211 17.8098 69.7433 17.0795 68.8347V68.8345C15.4809 66.8454 14.1491 65.1885 13.4015 65.3848C12.5022 65.6209 13.1825 67.4759 14.1822 69.261C14.6496 70.0958 15.1995 70.9458 15.6755 71.6819V71.682C16.416 72.8266 16.978 73.6952 16.7742 73.802C16.4991 73.9458 14.0792 71.586 12.4355 68.6124C11.4593 66.846 10.6395 64.894 9.97589 63.3138C9.25618 61.6 8.72007 60.3235 8.36706 60.1949C7.14054 59.7486 7.14054 62.2494 7.63246 65.8586C7.69663 66.3295 7.79219 66.8234 7.90985 67.3263C12.6804 82.7616 27.335 94.0003 44.6734 94.0003C65.8816 94.0003 83.0741 77.1853 83.0741 56.4428C83.0741 36.7006 67.5 20.5163 47.7125 19.0011C47.7374 18.0711 48.2229 16.2268 48.2229 16.2268C48.2229 16.2268 51.7161 7.77493 51.9008 5.96886C51.9129 5.84899 51.9274 5.71873 51.943 5.58001C52.1606 3.62859 52.5654 0.000244141 49.4439 0.000244141C47.7769 0.000244141 47.0018 1.24035 46.1152 2.65866V2.65868C45.7748 3.20317 45.4179 3.77392 44.9879 4.31084C41.8911 8.17817 36.6836 13.0076 33.7309 15.5806C27.4898 21.0188 21.3666 25.4882 17.7953 28.0949L17.7951 28.095C16.1709 29.2805 15.0746 30.0808 14.7354 30.4114C12.1786 32.9039 3.01139 49.4395 3.01139 49.4395C3.01139 49.4395 0.0468065 54.7446 1.10054 55.8206C2.15428 56.8965 4.69536 56.6499 4.69536 56.6499C4.69536 56.6499 38.833 48.8184 41.8892 48.2008C42.7121 48.0344 43.293 47.9384 43.7389 47.8648C44.9498 47.6649 45.1671 47.6289 46.5342 46.7948ZM22.3976 36.7307C20.5652 38.4725 17.5262 42.63 17.5262 42.63C17.5262 42.63 23.1742 42.9779 26.2849 40.0211C29.3957 37.0642 28.683 32.0251 28.683 32.0251C28.683 32.0251 24.2299 34.989 22.3976 36.7307Z" fill="url(#paint0_linear_1406_845)"/>
<defs>
<linearGradient id="paint0_linear_1406_845" x1="-7.35331" y1="7.0491" x2="66.7071" y2="108.47" gradientUnits="userSpaceOnUse">
<stop stop-color="white"/>
<stop offset="1" stop-color="white" stop-opacity="0"/>
</linearGradient>
</defs>
</svg>
