<svg width="60" height="94" viewBox="0 0 60 94" fill="none" xmlns="http://www.w3.org/2000/svg">
<path fill-rule="evenodd" clip-rule="evenodd" d="M11.0083 0.107156C10.9901 0.0547036 11.0292 0 11.0847 0H44.1001C44.1356 0 44.167 0.023057 44.1774 0.056874L59.3419 49.0509C59.3579 49.1029 59.3192 49.1556 59.2646 49.1556H37.285C37.2582 49.1556 37.2389 49.1811 37.2462 49.207L49.8521 93.5825C49.8767 93.6686 49.7638 93.7248 49.71 93.6532L0.721436 28.5061C0.681412 28.4528 0.719397 28.3768 0.785968 28.3768H20.7343C20.7621 28.3768 20.7815 28.3494 20.7724 28.3232L11.0083 0.107156Z" fill="url(#paint0_linear_1406_3031)"/>
<defs>
<linearGradient id="paint0_linear_1406_3031" x1="-5.16419" y1="7.0253" x2="72.3115" y2="82.9679" gradientUnits="userSpaceOnUse">
<stop stop-color="white"/>
<stop offset="1" stop-color="white" stop-opacity="0"/>
</linearGradient>
</defs>
</svg>
