<svg width="88" height="94" viewBox="0 0 88 94" fill="none" xmlns="http://www.w3.org/2000/svg">
<path fill-rule="evenodd" clip-rule="evenodd" d="M13.1982 7.81429C14.3358 3.32282 18.4048 -0.000488281 23.2498 -0.000488281C26.8841 -0.000488281 30.0817 1.86936 31.9331 4.69951H34.9648C36.8482 2.76656 39.4797 1.56618 42.3917 1.56618C46.661 1.56618 50.3277 4.14656 51.9173 7.83285H54.4554C56.0459 6.83994 57.9252 6.26617 59.9383 6.26617C64.2078 6.26617 67.8743 8.84656 69.4639 12.5329H76.3661C76.425 12.5329 76.4803 12.5487 76.5278 12.5764C76.8431 12.5476 77.1623 12.5329 77.4849 12.5329C83.2114 12.5329 87.8534 17.175 87.8534 22.9014V53.9919L87.8535 54.0495L87.8534 54.1072V54.555C87.8534 54.7446 87.8482 54.9335 87.8379 55.1215C87.2141 76.6898 67.8201 93.9995 43.9867 93.9995C19.7599 93.9995 0.120117 76.1133 0.120117 54.0495C0.120117 43.3994 4.69617 33.7226 12.1553 26.5609C12.1367 36.9437 12.3121 47.6777 13.1205 47.4936C15.2852 47.0001 13.5939 14.8411 13.1982 7.81429Z" fill="url(#paint0_linear_1406_15491)"/>
<defs>
<linearGradient id="paint0_linear_1406_15491" x1="-8.66104" y1="7.04837" x2="63.8073" y2="112.969" gradientUnits="userSpaceOnUse">
<stop stop-color="white"/>
<stop offset="1" stop-color="white" stop-opacity="0"/>
</linearGradient>
</defs>
</svg>
