<svg width="72" height="94" viewBox="0 0 72 94" fill="none" xmlns="http://www.w3.org/2000/svg">
<path fill-rule="evenodd" clip-rule="evenodd" d="M53.6714 72.5929C54.8328 68.3461 52.5785 59.6157 52.5785 59.6157C52.5785 59.6157 50.9434 66.7279 48.3885 69.3566C46.2089 71.5989 43.5385 73.1541 39.7087 73.5628C42.8399 72.0419 44.9933 68.8707 44.9933 65.2052C44.9933 60.0598 40.7501 55.8886 35.5158 55.8886C30.2816 55.8886 26.0382 60.0598 26.0382 65.2052C26.0382 66.6104 26.3549 67.9432 26.9216 69.138C23.6478 66.5298 23.133 62.3483 23.133 62.3483C23.133 62.3483 19.4773 77.526 29.5503 84.6656C39.6232 91.8052 59.3557 85.6684 59.3557 85.6684C59.3557 85.6684 31.1173 105.537 10.1924 83.9125C-7.83271 65.284 5.48781 40.7593 5.48781 40.7593C5.48781 40.7593 4.91253 43.0344 4.91253 45.6754C4.91253 48.3164 6.34444 50.3259 6.34444 50.3259C6.34444 50.3259 10.6157 41.3226 13.9399 37.6612C17.086 34.1961 21.0297 31.3856 24.4361 28.9581C27.0582 27.0895 29.362 25.4478 30.7378 23.9091C38.316 15.4355 33.6694 0.000976562 33.6694 0.000976562C33.6694 0.000976562 42.212 7.53199 44.5969 17.2584C45.5061 20.9659 44.9212 25.1844 44.3983 28.9567C43.5493 35.0806 42.8633 40.029 48.9962 39.7079C58.907 39.1889 50.2948 23.9091 50.2948 23.9091C50.2948 23.9091 72.7762 35.7252 71.0967 56.3909C69.417 77.0566 46.5234 81.7547 46.5234 81.7547C46.5234 81.7547 52.5098 76.8396 53.6714 72.5929Z" fill="url(#paint0_linear_1405_34698)"/>
<defs>
<linearGradient id="paint0_linear_1405_34698" x1="-6.30098" y1="7.04983" x2="70.4657" y2="97.1332" gradientUnits="userSpaceOnUse">
<stop stop-color="white"/>
<stop offset="1" stop-color="white" stop-opacity="0"/>
</linearGradient>
</defs>
</svg>
