<svg width="94" height="82" viewBox="0 0 94 82" fill="none" xmlns="http://www.w3.org/2000/svg">
<path fill-rule="evenodd" clip-rule="evenodd" d="M32.8104 81.7083C46.5805 81.7083 58.3694 74.0552 63.2363 63.2063C63.2958 63.0739 43.6966 68.2997 44.3215 66.4524C44.6006 65.6275 56.615 61.2385 65.3682 56.1192C70.3992 53.1767 72.716 46.948 72.716 46.948C72.716 46.948 64.24 51.0632 59.9551 52.1071C51.3203 54.2111 43.7194 53.9845 43.7194 53.7653C43.7194 53.2913 56.3405 50.8932 73.8825 40.2035C82.1338 35.1754 84.3749 26.5145 84.3749 26.5145C84.3749 26.5145 75.3034 31.918 69.8194 33.702C56.8144 37.9326 44.9465 39.2075 44.9465 38.635C44.9465 37.4093 55.3906 34.5374 66.4639 29.1719C72.2214 26.3821 77.2076 22.7374 82.9858 18.6842C92.4406 12.0527 93.9998 0.241699 93.9998 0.241699C93.9998 0.241699 84.6747 6.25625 80.124 8.25362C61.3462 16.4954 44.7655 20.8187 32.8104 21.7547C14.7639 23.1676 0 35.759 0 52.1071C0 68.4554 14.6897 81.7083 32.8104 81.7083Z" fill="url(#paint0_linear_1406_1181)"/>
<defs>
<linearGradient id="paint0_linear_1406_1181" x1="6" y1="6.00012" x2="88" y2="80.5001" gradientUnits="userSpaceOnUse">
<stop stop-color="white"/>
<stop offset="1" stop-color="white" stop-opacity="0"/>
</linearGradient>
</defs>
</svg>
