<svg width="85" height="92" viewBox="0 0 85 92" fill="none" xmlns="http://www.w3.org/2000/svg">
<path fill-rule="evenodd" clip-rule="evenodd" d="M13.8863 79.9023C13.5637 79.5988 13.2446 79.2895 12.9292 78.9741C-3.7199 62.325 -3.71989 35.3314 12.9292 18.6824C29.5783 2.03324 82.6288 0.919434 82.6288 0.919434C82.6288 0.919434 89.8701 62.325 73.2211 78.9741C58.4344 93.7607 35.4885 95.4149 18.8764 83.9368L32.2618 67.5105L53.6597 62.8907L36.1928 61.1445L47.2932 49.8421L59.9289 47.0741L49.9373 44.1151L59.9289 26.0906L45.7169 42.0317L40.2287 34.2872L42.1607 47.0741L32.2618 58.2333L27.6733 44.1149V62.8907L13.8863 79.9023Z" fill="url(#paint0_linear_1402_34677)"/>
<defs>
<linearGradient id="paint0_linear_1402_34677" x1="-7.94043" y1="7.70895" x2="62.0856" y2="109.15" gradientUnits="userSpaceOnUse">
<stop stop-color="white"/>
<stop offset="1" stop-color="white" stop-opacity="0"/>
</linearGradient>
</defs>
</svg>
