<svg width="94" height="69" viewBox="0 0 94 69" fill="none" xmlns="http://www.w3.org/2000/svg">
<path fill-rule="evenodd" clip-rule="evenodd" d="M20.7028 68.7351C20.6773 68.7351 20.6594 68.71 20.6679 68.6859L44.6664 0.875188C44.6717 0.860445 44.6856 0.850586 44.7012 0.850586H70.3203C70.3359 0.850586 70.35 0.860519 70.3552 0.875353L93.9976 68.6861C94.0059 68.7102 93.9881 68.7351 93.9628 68.7351H21.4239H20.7028ZM0.0369585 69.0004C0.0111831 69.0004 -0.00666173 68.9747 0.00237951 68.9507L17.8733 21.2398C17.8787 21.2253 17.8925 21.2157 17.9079 21.2157H33.4357C33.4614 21.2157 33.4792 21.2412 33.4704 21.2653L16.1897 68.9762C16.1844 68.9907 16.1706 69.0004 16.155 69.0004H0.0369585Z" fill="url(#paint0_linear_1406_1534)"/>
<defs>
<linearGradient id="paint0_linear_1406_1534" x1="-9.40834" y1="5.96099" x2="33.5728" y2="98.8012" gradientUnits="userSpaceOnUse">
<stop stop-color="white"/>
<stop offset="1" stop-color="white" stop-opacity="0"/>
</linearGradient>
</defs>
</svg>
