<svg width="91" height="78" viewBox="0 0 91 78" fill="none" xmlns="http://www.w3.org/2000/svg">
<mask id="path-1-inside-1_1406_4527" fill="white">
<path d="M23.4022 26.3928L43.9516 36.6674V13.5494L23.4022 0.706055V26.3928Z"/>
<path d="M46.5202 13.5494V36.6674L67.0696 26.3928V0.706055L46.5202 13.5494Z"/>
<path d="M67.0696 52.0795L46.5202 41.8048V67.4915L67.0696 77.7662V52.0795Z"/>
<path d="M43.9516 67.4915V41.8048L23.4022 52.0795V77.7662L43.9516 67.4915Z"/>
<path d="M67.0696 28.9614L46.5202 39.2361L67.0696 49.5108L90.1876 39.2361L67.0696 28.9614Z"/>
<path d="M23.4022 28.9614L43.9516 39.2361L20.8335 49.5108L0.28418 39.2361L23.4022 28.9614Z"/>
</mask>
<path d="M43.9516 36.6674L27.8692 68.8323L79.9129 94.8542V36.6674H43.9516ZM23.4022 26.3928H-12.5592V48.6181L7.31979 58.5576L23.4022 26.3928ZM23.4022 0.706055L42.4617 -29.7891L-12.5592 -64.1772V0.706055H23.4022ZM43.9516 13.5494H79.9129V-6.3821L63.0111 -16.9458L43.9516 13.5494ZM46.5202 36.6674H10.5589V94.8542L62.6026 68.8323L46.5202 36.6674ZM46.5202 13.5494L27.4607 -16.9458L10.5589 -6.3821V13.5494H46.5202ZM67.0696 0.706055H103.031V-64.1772L48.0101 -29.7891L67.0696 0.706055ZM67.0696 26.3928L83.152 58.5576L103.031 48.6181V26.3928H67.0696ZM46.5202 41.8048L62.6027 9.63994L10.5589 -16.382V41.8048H46.5202ZM67.0696 52.0795H103.031V29.8541L83.152 19.9146L67.0696 52.0795ZM67.0696 77.7662L50.9872 109.931L103.031 135.953V77.7662H67.0696ZM46.5202 67.4915H10.5589V89.7168L30.4378 99.6563L46.5202 67.4915ZM43.9516 41.8048H79.9129V-16.382L27.8691 9.63994L43.9516 41.8048ZM43.9516 67.4915L60.034 99.6563L79.9129 89.7168V67.4915H43.9516ZM23.4022 77.7662H-12.5592V135.953L39.4846 109.931L23.4022 77.7662ZM23.4022 52.0795L7.31979 19.9146L-12.5592 29.8541V52.0795H23.4022ZM46.5202 39.2361L30.4378 7.07127L-33.8918 39.2361L30.4378 71.4009L46.5202 39.2361ZM67.0696 28.9614L81.6749 -3.9005L66.1665 -10.7931L50.9872 -3.20341L67.0696 28.9614ZM90.1876 39.2361L104.793 72.098L178.732 39.2361L104.793 6.37418L90.1876 39.2361ZM67.0696 49.5108L50.9872 81.6756L66.1665 89.2653L81.6749 82.3727L67.0696 49.5108ZM43.9516 39.2361L58.5569 72.098L128.191 41.1496L60.034 7.07127L43.9516 39.2361ZM23.4022 28.9614L39.4846 -3.20341L24.3053 -10.7931L8.79691 -3.9005L23.4022 28.9614ZM0.28418 39.2361L-14.3211 6.37418L-83.955 37.3226L-15.7982 71.4009L0.28418 39.2361ZM20.8335 49.5108L4.75112 81.6756L19.9305 89.2653L35.4388 82.3727L20.8335 49.5108ZM60.034 4.5026L39.4846 -5.77208L7.31979 58.5576L27.8692 68.8323L60.034 4.5026ZM59.3636 26.3928V0.706055H-12.5592V26.3928H59.3636ZM4.34272 31.2012L24.8921 44.0446L63.0111 -16.9458L42.4617 -29.7891L4.34272 31.2012ZM7.99019 13.5494V36.6674H79.9129V13.5494H7.99019ZM82.4816 36.6674V13.5494H10.5589V36.6674H82.4816ZM65.5797 44.0446L86.1291 31.2012L48.0101 -29.7891L27.4607 -16.9458L65.5797 44.0446ZM31.1082 0.706055V26.3928H103.031V0.706055H31.1082ZM50.9872 -5.77208L30.4378 4.5026L62.6026 68.8323L83.152 58.5576L50.9872 -5.77208ZM30.4378 73.9696L50.9872 84.2443L83.152 19.9146L62.6027 9.63994L30.4378 73.9696ZM31.1082 52.0795V77.7662H103.031V52.0795H31.1082ZM83.152 45.6013L62.6027 35.3266L30.4378 99.6563L50.9872 109.931L83.152 45.6013ZM82.4816 67.4915V41.8048H10.5589V67.4915H82.4816ZM7.99019 41.8048V67.4915H79.9129V41.8048H7.99019ZM27.8691 35.3266L7.31979 45.6013L39.4846 109.931L60.034 99.6563L27.8691 35.3266ZM59.3636 77.7662V52.0795H-12.5592V77.7662H59.3636ZM39.4846 84.2443L60.034 73.9696L27.8691 9.63994L7.31979 19.9146L39.4846 84.2443ZM62.6027 71.4009L83.152 61.1263L50.9872 -3.20341L30.4378 7.07127L62.6027 71.4009ZM52.4643 61.8233L75.5823 72.098L104.793 6.37418L81.6749 -3.9005L52.4643 61.8233ZM75.5823 6.37418L52.4643 16.6489L81.6749 82.3727L104.793 72.098L75.5823 6.37418ZM83.152 17.3459L62.6026 7.07127L30.4378 71.4009L50.9872 81.6756L83.152 17.3459ZM60.034 7.07127L39.4846 -3.20341L7.31979 61.1263L27.8691 71.4009L60.034 7.07127ZM8.79691 -3.9005L-14.3211 6.37418L14.8895 72.098L38.0075 61.8233L8.79691 -3.9005ZM-15.7982 71.4009L4.75112 81.6756L36.916 17.3459L16.3666 7.07127L-15.7982 71.4009ZM35.4388 82.3727L58.5569 72.098L29.3463 6.37418L6.22824 16.6489L35.4388 82.3727Z" fill="url(#paint0_linear_1406_4527)" mask="url(#path-1-inside-1_1406_4527)"/>
<defs>
<linearGradient id="paint0_linear_1406_4527" x1="-0.000243188" y1="0.999999" x2="89.9998" y2="78" gradientUnits="userSpaceOnUse">
<stop stop-color="white"/>
<stop offset="1" stop-color="white" stop-opacity="0"/>
</linearGradient>
</defs>
</svg>
