<svg width="88" height="94" viewBox="0 0 88 94" fill="none" xmlns="http://www.w3.org/2000/svg">
<path fill-rule="evenodd" clip-rule="evenodd" d="M80.706 78.0599C80.706 78.0599 68.8532 87.5662 45.2665 83.6324C27.3716 80.6477 17.8273 60.9213 17.8273 50.318C17.8273 25.1785 36.4338 19.4575 49.0131 19.4575C61.5922 19.4575 69.7983 31.7216 69.7983 41.2171C69.7983 50.7125 63.0824 59.0179 52.631 59.0179C42.1797 59.0179 39.0843 51.6806 39.0843 44.9348C39.0843 38.1892 44.542 35.8126 49.5194 35.8126C54.4969 35.8126 56.2012 40.0621 56.2012 43.7143C56.2012 47.3667 53.3674 48.6746 51.0038 48.6746C48.6402 48.6746 48.4065 47.4822 47.5019 46.229C46.5972 44.976 48.6556 40.2326 45.2665 40.2326C41.8774 40.2326 41.2456 45.6855 41.2456 45.6855C41.2456 45.6855 42.4812 56.2115 52.631 56.03C62.781 55.8482 67.5961 48.0014 66.1967 40.2326C64.7974 32.4637 57.2577 24.2084 44.0254 25.8765C30.7931 27.5446 25.3904 40.9147 27.7718 55.2027C30.1532 69.4909 47.2702 77.7695 60.7286 74.791C74.1871 71.8126 87.5915 62.0693 87.5915 37.3662C87.5915 12.6629 66.1967 -2.18602 40.6855 0.261161C15.1742 2.70833 -0.662062 25.012 0.351596 51.8102C1.36525 78.6085 26.7937 93.2036 48.296 93.9558C69.7983 94.7082 82.9801 82.2611 82.9801 82.2611C82.9801 82.2611 85.9446 79.6175 84.7823 77.5532C83.6201 75.4889 80.706 78.0599 80.706 78.0599Z" fill="url(#paint0_linear_1406_12166)"/>
<defs>
<linearGradient id="paint0_linear_1406_12166" x1="-8.43069" y1="7.04687" x2="64.1606" y2="112.618" gradientUnits="userSpaceOnUse">
<stop stop-color="white"/>
<stop offset="1" stop-color="white" stop-opacity="0"/>
</linearGradient>
</defs>
</svg>
