<svg width="94" height="75" viewBox="0 0 94 75" fill="none" xmlns="http://www.w3.org/2000/svg">
<path fill-rule="evenodd" clip-rule="evenodd" d="M72.5439 35.9385C72.5386 35.9312 72.5364 35.922 72.5378 35.913L78.5347 0.944617C78.5375 0.928516 78.5516 0.916748 78.5678 0.916748H80.4658C80.4805 0.916748 80.4933 0.92624 80.4977 0.940193L94.0084 43.7181C94.0126 43.7314 94.008 43.746 93.997 43.7547L84.0354 51.5323C84.0205 51.5438 83.999 51.5409 83.9878 51.5257L72.5439 35.9385ZM-0.18457 59.12C-0.18457 59.1345 -0.175244 59.1474 -0.161458 59.152L20.3733 65.8662C20.3833 65.8695 20.3943 65.8678 20.4029 65.8619L66.303 34.1737C66.3107 34.1683 66.3158 34.1601 66.3171 34.1509L71.2393 1.12392C71.2424 1.10365 71.2266 1.08543 71.2062 1.08543H30.5501C30.54 1.08543 30.5307 1.08988 30.5242 1.09757L-0.176855 38.1338C-0.181842 38.1398 -0.18457 38.1474 -0.18457 38.1553V59.12ZM28.9303 67.5769L51.3641 74.9256C51.3742 74.9289 51.3854 74.9273 51.3941 74.921L78.1031 55.7624C78.118 55.752 78.1217 55.7316 78.1116 55.7166L68.0991 40.817C68.0886 40.8014 68.0677 40.7974 68.0523 40.808L28.9303 67.5769Z" fill="url(#paint0_linear_1406_2669)"/>
<defs>
<linearGradient id="paint0_linear_1406_2669" x1="-9.61241" y1="6.46664" x2="39.4626" y2="104.278" gradientUnits="userSpaceOnUse">
<stop stop-color="white"/>
<stop offset="1" stop-color="white" stop-opacity="0"/>
</linearGradient>
</defs>
</svg>
