<svg width="94" height="82" viewBox="0 0 94 82" fill="none" xmlns="http://www.w3.org/2000/svg">
<path fill-rule="evenodd" clip-rule="evenodd" d="M0.00938361 40.732C-0.00312194 40.7107 -0.00312822 40.6843 0.00936688 40.6628L23.646 0.278465C23.6583 0.257517 23.6808 0.244629 23.7051 0.244629H70.554C70.5784 0.244629 70.601 0.257628 70.6133 0.278759L93.9907 40.6632C94.003 40.6843 94.003 40.7105 93.9907 40.7316L70.6133 81.0707C70.601 81.0918 70.5784 81.1048 70.554 81.1048H23.7051C23.6808 81.1048 23.6583 81.092 23.646 81.071L0.00938361 40.732ZM68.7774 40.6747C68.7774 52.6979 59.0305 62.4447 47.0074 62.4447C34.9842 62.4447 25.2374 52.6979 25.2374 40.6747C25.2374 28.6514 34.9842 18.9047 47.0074 18.9047C59.0305 18.9047 68.7774 28.6514 68.7774 40.6747Z" fill="url(#paint0_linear_1406_8924)"/>
<defs>
<linearGradient id="paint0_linear_1406_8924" x1="-9.40836" y1="6.30816" x2="47.0375" y2="109.067" gradientUnits="userSpaceOnUse">
<stop stop-color="white"/>
<stop offset="1" stop-color="white" stop-opacity="0"/>
</linearGradient>
</defs>
</svg>
