<svg width="62" height="94" viewBox="0 0 62 94" fill="none" xmlns="http://www.w3.org/2000/svg">
<path fill-rule="evenodd" clip-rule="evenodd" d="M61.5081 63.619C61.5081 80.3961 47.8563 93.9968 31.0158 93.9968C14.1753 93.9968 0.523438 80.3961 0.523438 63.619C0.523438 47.3019 29.3664 2.48829 30.9482 0.042801C30.9844 -0.0129653 31.0474 -0.0129648 31.0834 0.0428016C32.6652 2.48829 61.5081 47.3019 61.5081 63.619ZM25.9328 84.2578C10.4595 80.8722 13.1073 63.7319 13.1073 63.7319C13.1073 63.7319 17.3325 74.0789 27.5861 77.4305C37.8394 80.782 50.2305 75.8665 50.2305 75.8665C50.2305 75.8665 41.4061 87.6433 25.9328 84.2578Z" fill="url(#paint0_linear_1402_1257)"/>
<defs>
<linearGradient id="paint0_linear_1402_1257" x1="-5.58047" y1="7.04952" x2="72.1572" y2="86.0338" gradientUnits="userSpaceOnUse">
<stop stop-color="white"/>
<stop offset="1" stop-color="white" stop-opacity="0"/>
</linearGradient>
</defs>
</svg>
